<?xml version="1.0" encoding="UTF-8"?>
<svg id="Isolation_Mode" data-name="Isolation Mode" xmlns="http://www.w3.org/2000/svg" viewBox="0 0 414 531.77">
  <defs>
    <style>
      .cls-1 {
        fill: #848484;
      }
    </style>
  </defs>
  <g id="_7hgmUa" data-name="7hgmUa">
    <g>
      <path class="cls-1" d="M0,4.27C.17,3.67,3.39.9,4.26.53l289.02-.53c2.1.73,4.1,1.76,5.78,3.22,17.09,14.82,34.23,35.21,50.54,51.46,21.53,21.44,43.72,42.34,64.41,64.59v412.5H0V4.27ZM285,14.77L14,15.27v359.5c.97-.81,1.89,0,2.5,0h383.5v-246h-110.5c-.45,0-4.5-4.8-4.5-5.5V14.77ZM389,114.77l-89.49-89.01.99,89.01h88.5ZM124,460.77h24.5c.77,0,7.08-1.32,8.32-1.68,17.36-4.98,19.67-32.44,4.53-41.17-1.41-.81-8.64-3.15-9.85-3.15h-37l-1.5,1.5v76c1.1,1.75,2.68,1.43,4.46,1.56,1.61.12,3.29.02,4.88-.22l1.66-1.34v-31.5ZM186.5,414.77l-1.5,1.5v76l1.5,1.5h32c36.41,0,41.9-67.3,9.32-77.32-1-.31-6.84-1.68-7.32-1.68h-34ZM319,414.77h-54v79h10v-31.5c0-.89.53-3.87,1.5-4.5h37.5c-.56-2.42,1.39-8.5-1.26-9.28l-36.81-.16-.94-23.56h44v-10Z"/>
      <path class="cls-1" d="M170.27,251.04c-8.04,15.01-23.91,48.74-43.78,48.54-5.13-.05-11.17-3.21-12.26-8.53-2.99-14.59,11.81-27.67,22.45-35.09,5.11-3.56,22.28-11.54,24.76-14.24,2.08-2.25,7.91-16.28,9.72-20.28,9.28-20.43,16.33-41.79,22.79-63.28-6.49-16.53-18.22-39.74-10.47-57.4,3.51-7.99,11.82-13.66,20-8,17.71,12.25,7.46,45.11,3.93,62.52,10.31,21.33,26.77,39.51,43.58,55.96,12.55.45,24.26-3.56,36.68,1.32s18.37,19.32,5.18,26.58c-15.94,8.78-32.36-5.92-45.17-14.12-26.8,5.51-52.64,14.69-77.44,26.01ZM198.99,135.76c1.7-7.54,2.95-16.81,2.04-24.52-.77-6.48-4.95-11.32-7.33-2.29-1.66,6.29.89,12.58,1.8,18.83l3.5,7.98ZM202.01,172.77c-3.23,12.3-7.6,24.45-12.24,36.27-2.82,7.19-7.51,15.19-9.95,22.07-.39,1.1-.98,2.59.68,2.63.87.02,13.23-6,15.99-6.99,6.41-2.3,13.01-4.46,19.52-6.48,3.03-.94,19.68-4.67,19.99-6.02l-33.98-41.48ZM287,228.76c-2.31-8.41-13.36-5.52-19.99-5.98.55,1.49,3.55,2.76,4.98,3.51,4.97,2.6,9.4,4.81,15.01,2.47ZM150,262.78c-2.28-1.96-25.45,17.9-24,23.98,11.67-.9,17.84-15.39,24-23.98Z"/>
      <path class="cls-1" d="M196,483.77v-60h20.5c1.03,0,7.35,1.7,8.74,2.26,16.52,6.66,16.59,42.6,4.8,53.29-1.19,1.08-7.45,4.46-8.54,4.46h-25.5Z"/>
      <path class="cls-1" d="M124,450.77v-27h22.5c.33,0,5.81,1.24,6.52,1.48,7.92,2.68,10.05,13.89,5.44,20.48-.92,1.32-5.9,5.04-6.96,5.04h-27.5Z"/>
    </g>
  </g>
</svg>