<?xml version="1.0" encoding="UTF-8"?>
<svg id="Layer_1" data-name="Layer 1" xmlns="http://www.w3.org/2000/svg" viewBox="0 0 758.97 593.17">
  <defs>
    <style>
      .cls-1 {
        fill: #bcd000;
      }

      .cls-2 {
        fill: #6b6b6b;
      }
    </style>
  </defs>
  <g id="_0dH5b9.tif" data-name="0dH5b9.tif">
    <g>
      <path class="cls-1" d="M383.24,0c107.13,6.14,146.39,141.12,71.43,212.73C281.39,350.01,170.54,9.94,383.24,0Z"/>
      <path class="cls-2" d="M132.37,78.18c106.99-3.57,110.97,162.97,8.72,169.52-104.47,6.69-114.15-166-8.72-169.52Z"/>
      <path class="cls-2" d="M141.55,370.3c1.32-12.72,8.43-25.97,14.18-37.25,2.44-4.52,7.15-8.61,7.8-13.68M163.52,319.37c3.15-.46,7.37-7.83,9.96-10.51,8.42-8.73,18.99-17.11,29.05-23.88,15.86-3.98-25.17-15.84-29.03-15.53,0,0-.4-.42,0,0-55.31-8.8-141.98-4.09-162.79,57.92h0c-23.44,125.03-19.55,153.67,127.84,149.8,1.71-34.52-3.02-72.8,2.99-106.86M27.45,463.36c.17.52.26.93.32.98-.06-.04-.15-.46-.32-.98Z"/>
      <g>
        <path class="cls-1" d="M442.16,591.18c-.58.06,5.19-.23,0,0h0Z"/>
        <path class="cls-1" d="M458.77,264.55l-44.07,121.91c-10.58-19.93-12.19-46.1-20.41-67.43,3.5-9.32,21.68-25.25,17.38-35.41-6.75-10.56-42.31-4.39-54.4-5.01-.4,0-.69,0-.96-.01-.35-.02-.7-.03-1.04.01-22.73,2.75,5.75,31.09,8.87,40.4l-18.87,67.45c-2.29.42-1.59-.15-2.22-1.28-15.59-39.55-28-80.6-42.81-120.47-164.28,44.39-146.32,114.17-144.76,259.1,1.09,76.42,151,63.51,205.77,69.36,26.73-.38,70.65-.9,80.89-2,9.32-.44,9.06-.3,15.98-1,15.8-1.59,22.76-2.28,33.96-3,1.59-.23,2.06-.4,4.9-.98.08.07.89.27.09-.02,4.84-.98,18.43-4.38,26.96-3.99,36.39,1.68,77.17-14.95,78.93-58.38,2.51-143.88,18.73-214.58-144.21-259.26Z"/>
      </g>
      <path class="cls-2" d="M701.44,168.92c.7-149.61-211.23-95.31-147.43,37.8,37.94,73.59,155.93,44.61,147.11-34.31.19,1.44-.09-1.24.12-.99-.21-.25.05-1.1.19-2.5Z"/>
      <path class="cls-2" d="M583.97,269.63c-89.21,22.25,42.08.73,36.95,152.79-2.82,17.46-.07,36.97-1,54.93,38.44-2.58,131.81,7.88,136.69-44.57,15.52-131.73-45.92-177.18-172.64-163.15ZM617.44,351.97s-.01,0-.02,0c0,0,.01,0,.02,0Z"/>
    </g>
  </g>
</svg>