<?xml version="1.0" encoding="UTF-8"?>
<svg id="Layer_1" xmlns="http://www.w3.org/2000/svg" version="1.1" viewBox="0 0 195.18 297.01">
  <!-- Generator: Adobe Illustrator 29.6.0, SVG Export Plug-In . SVG Version: 2.1.1 Build 207)  -->
  <defs>
    <style>
      .st0 {
        fill: #fff;
      }
    </style>
  </defs>
  <path class="st0" d="M97.47,0c33.14,0,58.17,26.86,60.37,59.08,1.71,25.01,1.74,64.09,0,89.08-5.37,77.03-115.71,78.29-121.08-2-1.64-24.46-1.86-63.76,0-88.08C39.21,26.28,65.08,0,97.47,0ZM90.55,24.86c-19.04,2.98-28.58,21.64-29.78,39.22-1.5,22.02-1.5,56.06,0,78.08,3.73,54.66,69.34,51.22,73.08,4,1.8-22.73,1.77-62.32,0-85.07-1.81-23.19-19.47-39.95-43.3-36.22h0Z"/>
  <path class="st0" d="M109.86,250.67c-1.34,1.4,1.28,32.23-.82,38.68-3.66,11.24-21.66,10.04-23.25-3.21-.63-5.2,1.2-34.2-.03-35.48-14.6-2.05-29.51-7.44-41.68-15.82C18.97,217.55-4.86,177.5.86,146.17c1.97-10.78,21.23-11.92,23.71,3.19,3.46,21.06,2.3,32.01,16.82,50.18,39.59,49.5,115.71,28.44,127.95-31.88,2.06-10.17-1.23-29.84,13.96-29.84,17.81,0,11.08,29.27,8.22,40.03-10.02,37.58-42.69,67.88-81.67,72.83h0Z"/>
</svg>