<svg width="74" height="33" viewBox="0 0 74 33" fill="none" xmlns="http://www.w3.org/2000/svg">
<g clip-path="url(#clip0_2791_865)">
<path d="M0 8.70658L0 24.7997C0 26.083 1.04957 27.1233 2.34428 27.1233H18.7497C20.0444 27.1233 21.094 26.083 21.094 24.7997V8.70658C21.094 7.42331 20.0444 6.38302 18.7497 6.38302H2.34428C1.04957 6.38302 0 7.42331 0 8.70658Z" fill="#6B6B6B"/>
<path d="M52.906 8.9914V29.9396C52.906 31.3802 54.0842 32.548 55.5376 32.548H71.3684C72.8218 32.548 74 31.3802 74 29.9396V8.9914C74 7.55085 72.8218 6.38304 71.3684 6.38304H55.5376C54.0842 6.38304 52.906 7.55085 52.906 8.9914Z" fill="#6B6B6B"/>
<path d="M30.5578 2.28291L30.5578 30.2651C30.5578 31.5259 31.589 32.548 32.861 32.548H41.2576C42.5296 32.548 43.5608 31.5259 43.5608 30.2651V2.28291C43.5608 1.02211 42.5296 3.05176e-05 41.2576 3.05176e-05H32.861C31.589 3.05176e-05 30.5578 1.02211 30.5578 2.28291Z" fill="#BCD000"/>
<path d="M4.10477 11.8664L4.10477 31.0788C4.10477 32.1398 4.9726 33 6.04313 33H15.1694C16.2399 33 17.1078 32.1398 17.1078 31.0788V11.8664C17.1078 10.8054 16.2399 9.94521 15.1694 9.94521H6.04313C4.9726 9.94521 4.10477 10.8054 4.10477 11.8664Z" fill="#6B6B6B"/>
</g>
<defs>
<clipPath id="clip0_2791_865">
<rect width="74" height="33" fill="white"/>
</clipPath>
</defs>
</svg>
