<svg width="57" height="48" viewBox="0 0 57 48" fill="none" xmlns="http://www.w3.org/2000/svg">
<path d="M26.4921 5.97839H2.31702V25.7329H26.4921V5.97839Z" fill="#6B6B6B"/>
<path d="M20.0715 3.56197H7.82761V32.8709H20.0715V3.56197Z" fill="#6B6B6B"/>
<path d="M15.8171 31.8074H13.0479V42.3194H15.8171V31.8074Z" fill="#6B6B6B"/>
<path d="M8.41384 5.89488H5.91258V25.6995H8.41384V5.89488Z" fill="#595959"/>
<path d="M15.7055 32.9265H13.2042V35.7383H15.7055V32.9265Z" fill="#595959"/>
<path d="M21.2998 5.89488H20.6075V25.6995H21.2998V5.89488Z" fill="#595959"/>
<path d="M2.45101 13.172H0V19.4358H2.45101V13.172Z" fill="#595959"/>
<path d="M15.6831 37.52L18.2626 37.5979L15.5212 38.3663L18.5585 38.8451L15.5212 39.3239L18.4524 39.9086L15.5212 40.2259L17.9164 40.7549L15.5212 41.0778L17.9164 41.5511L15.4654 41.8183L18.0783 42.2971L15.4654 42.5644L15.6831 42.9319" fill="white"/>
<path d="M56.1444 42.4252L42.4824 28.8008C42.393 28.7117 42.2925 28.6449 42.1976 28.567C47.2392 21.5014 46.5916 11.6353 40.2323 5.29915C33.1473 -1.76638 21.6571 -1.76638 14.5721 5.29915C7.48704 12.3647 7.48704 23.8232 14.5721 30.8888C20.7917 37.0913 30.4004 37.8485 37.4519 33.166C37.5413 33.2885 37.6362 33.4165 37.7478 33.5279L51.4099 47.1523C52.5432 48.2826 54.3801 48.2826 55.5135 47.1523L56.15 46.5176C57.2833 45.3873 57.2833 43.5555 56.15 42.4252H56.1444ZM37.0779 27.7374C31.7348 33.0658 23.0753 33.0658 17.7322 27.7374C12.3891 22.409 12.3891 13.7733 17.7322 8.44496C23.0753 3.11658 31.7348 3.11658 37.0779 8.44496C42.4209 13.7733 42.4209 22.409 37.0779 27.7374Z" fill="#C5D417"/>
</svg>
