<?xml version="1.0" encoding="UTF-8"?>
<svg id="Layer_1" data-name="Layer 1" xmlns="http://www.w3.org/2000/svg" viewBox="0 0 1728.15 1632.16">
  <defs>
    <style>
      .cls-1 {
        fill: #bcd000;
      }

      .cls-2 {
        fill: #6b6b6b;
      }
    </style>
  </defs>
  <g>
    <path class="cls-2" d="M452.67,1299.47c-8.44-3.67-15.34-10.34-21.78-16.89-23.68-26.02-35.19-38.27-28.66-73.49.66-7.52.66-14.3-3.34-18.74-7.9-8-22.8-9.87-33.84-12.31-20.73-3.7-37.58-12.34-57.23-21.55-19.75-8.41-41.14-15.55-57.93-29.09-14.05-9.68-26.2-26.27-40.68-32.09-8.6-2.65-16.41,2.76-23.82,7.11-4.57,2.78-8.24,5.17-10.61,5.51-1.62.25-2.62-.26-3.17-1.96-2.53-19.45,5.74-36.94,8.79-57.23,1.87-11.61,2.58-23.72,1.44-35.38-3.56-36.1-31.28-62.21-43.73-94.95-8.96-24.65-8.41-51.86-4.62-77.62,3.09-19,6.72-38.34,1.89-57.36-5.94-23.05-13.02-46.29-14.55-70.12-2.25-20.89-3.51-42.14-16.48-59.89-14.65-21.44-43.08-37.34-47.58-63.92-2.5-26.6,19.6-49.32,25.25-74.84,8.05-28.16,1.34-57.73-4.84-85.55-2.96-14.73-7.07-31.72-3.51-46.11,6.06-20.26,28.74-3.68,40.59-12.8,9.38-11.73,4.78-31.43-4.8-41.99-6.57-5.81-18.59-3.67-27.16-5.55-20.72-1.94-2.27-17.21,8.56-22.37,12.64-6.48,26.97-10.8,40.64-16.17,61.19-25.25,124.64-44.8,187.89-64.16,20.74-5.92,42.61-8.2,60.64-18.4,7.77-4.75,13.14-11.91,19.04-19.33,9.68-13.18,19.71-26.83,32.83-37.16,23.54-16.88,52.55-25.36,78.35-39.01,30.99-16.6,62.81-31.73,97.32-39.43,33.45-8.47,68.23-15.75,102.66-12.34l.19.02c15.46.97,31.85,5.42,46.94,12.26-8.15-23.65-8.6-45.5,24.25-26.63,5.01,2.38,16.66,9.73,10.19,2.59-22.02-22.56-59.06-39.53-92.14-41.6l-.2-.02c-36.84-3.64-74.05,4.15-109.85,13.21-36.93,8.24-70.98,24.44-104.14,42.19-27.6,14.6-58.65,23.68-83.84,41.74-14.04,11.05-24.78,25.67-35.13,39.77-6.31,7.95-12.06,15.61-20.37,20.69-19.3,10.92-42.7,13.35-64.89,19.69-67.68,20.72-135.57,41.63-201.05,68.65-14.63,5.75-29.97,10.37-43.49,17.3-11.59,5.53-31.34,21.86-9.16,23.94,9.17,2.01,22.03-.28,29.06,5.94,10.25,11.3,15.17,32.38,5.14,44.93-12.68,9.76-36.96-7.99-43.44,13.7-3.81,15.41.6,33.58,3.76,49.35,6.61,29.77,13.79,61.41,5.17,91.54-6.04,27.31-29.69,51.61-27.02,80.08,4.81,28.45,35.23,45.46,50.91,68.4,13.88,19,15.22,41.73,17.63,64.09,1.63,25.51,9.21,50.37,15.56,75.04,5.17,20.36,1.29,41.05-2.02,61.38-4.05,27.56-4.64,56.68,4.95,83.06,13.31,35.03,42.98,62.97,46.79,101.6,1.23,12.48.46,25.43-1.54,37.86-3.26,21.71-12.11,40.43-9.4,61.24.59,1.82,1.66,2.36,3.39,2.09,2.54-.37,6.47-2.93,11.35-5.9,7.93-4.65,16.29-10.44,25.49-7.61,15.5,6.23,28.5,23.99,43.53,34.34,17.97,14.48,40.86,22.13,61.99,31.13,21.03,9.86,39.05,19.1,61.24,23.06,11.82,2.61,27.76,4.61,36.21,13.17,4.27,4.75,4.28,12,3.57,20.05-6.98,37.68,5.33,50.79,30.67,78.64,6.89,7.01,14.27,14.14,23.3,18.07,23.72,10.51,53.21-6.15,55.96-31.93.11-.44.21-.89.31-1.34-8.7,3.19-18.51,3.36-27.44-.6Z"/>
    <path class="cls-2" d="M1727.29,1197.88c-1.09-19.59-1.53-37.5-2.92-56.52-2.64-41.69-38.64-73.29-53.42-110.93-15.54-38.03-26.35-78.93-26.32-120.59.48-37.01,18.8-80.02-4.98-112.74-12.21-17.06-36.1-27.24-45.44-46.27-12.09-21.85,1.44-48.03,18.53-64.14,18.97-19.52,46.81-29.36,65.04-48.57,19.81-20.07,24.92-49.03,23.94-76.47.44-75.89-42.65-141.61-55.68-214.8-4.56-20.97-8.38-42.1-12.09-63.25-4.58-26.19-8.5-53.74-21.28-76.97-28.07-47.82-83.91-72.17-138.5-69.14-166.77,8.53-333.27-18.52-499.86-19.8-34.71,1.57-67.83,14.87-102.01,20.42-46.7,7.28-87.71-9.29-107.41-53.29-10.09,4.43-2.62,28.36,5.96,46.71,18.2,42.01,56.86,57.85,100.92,50.98,31.94-5.19,62.9-17.61,95.33-19.09,155.68,1.2,311.28,26.47,467.13,18.51,51.02-2.84,103.2,19.92,129.43,64.61,11.94,21.71,15.61,47.45,19.89,71.93,3.47,19.77,7.03,39.51,11.3,59.11,12.17,68.39,52.44,129.82,52.04,200.74.92,25.64-3.85,52.7-22.37,71.46-17.04,17.96-43.05,27.16-60.79,45.39-15.98,15.06-28.62,39.52-17.32,59.94,8.72,17.79,31.05,27.3,42.46,43.24,22.23,30.58,5.11,70.78,4.66,105.36-.03,38.93,10.08,77.15,24.6,112.69,13.81,35.17,47.45,64.7,49.92,103.66,1.3,17.77,1.71,34.51,2.73,52.82,6.18,45.02-24.08,59.9-56.28,82.75-16.55,11.03-31.77,24.83-45.64,39.26-17.94,17.97-35.96,36.24-51.79,56.25-20.1,26.32-42.13,52.16-58.11,81.26-12.17,23.46-13.3,51.1-8.94,76.94,2.74,15.33,8.27,32.94,11.19,47.24,2.51,14.22,1.83,25.1-19.2,21.42-13.21-1.88-28.8-7.76-42.09-12.5-12.91-4.54-25.66-9.92-37.25-17.19-53.86-37.99-71.06-61.83-142.93-60.28-27.12,1.28-47.13,19.21-74.03,17.45-28.51-1-59.29-15.33-86.8-.65-26.52,10.64-59.9,52.79-85.1,19.57-13.77-15.43-21.98-38.25-38.13-52.19-30.47-27.77-45.52.11-74.09,9.31-27.28,6.56-40.34-25.16-55.03-43.08-17.96-24.67-31.63-53.58-57.96-70.47-18.02-11.88-40.01-19.82-60.69-24.02-22.23-5.31-53.1-9.01-59.66-35-3.43-11.95-.77-27.8-14.58-32.55-13.02-4.6-27.33-4.85-40.5-9.78-18.41-5.61-35.76-22.24-55.79-20.76-9.32,2.06-10.29,15.15-12.38,23.78-.26,2.43-.78,4.77-1.52,7.01,17.2,3.31,32.86,16.54,49.3,21.55,14.09,5.28,29.4,5.55,43.33,10.47,14.78,5.09,11.94,22.05,15.61,34.83,7.01,27.81,40.05,31.76,63.84,37.45,22.13,4.5,45.67,12.99,64.95,25.7,28.17,18.07,42.79,49.01,62.02,75.4,15.73,19.18,29.7,53.12,58.89,46.1,30.57-9.85,46.68-39.68,79.28-9.97,17.29,14.92,26.07,39.33,40.81,55.85,26.96,35.55,62.68-9.55,91.06-20.94,29.44-15.71,62.37-.37,92.88.7,28.78,1.88,50.2-17.31,79.22-18.67,76.91-1.65,95.32,23.86,152.95,64.51,12.4,7.78,26.05,13.53,39.86,18.39,14.22,5.07,30.9,11.37,45.04,13.38,22.5,3.93,23.23-7.71,20.54-22.92-3.11-15.3-9.03-34.15-11.97-50.55-4.66-27.65-3.46-57.23,9.57-82.33,17.11-31.15,40.67-58.79,62.19-86.96,16.94-21.41,36.22-40.96,55.42-60.19,14.84-15.44,31.13-30.21,48.84-42.01,34.46-24.45,66.83-40.37,60.22-88.55Z"/>
  </g>
  <g id="UmaZeH">
    <path class="cls-1" d="M1141.6,1372.45c-1.71,1.3-12.87-17.27-14.32-19.63-83.18-135.25-163.75-272.2-245.59-408.27-56.97-108.96-69.43-220.14-.54-327.55,128.37-200.13,429.66-184.61,533.91,29.27,67.24,137.96,13.48,247.04-57.07,366.76-67.39,114.37-138.59,226.63-206.84,340.49-3.56,5.94-7.34,12.32-9.56,18.93ZM1238.21,679c-78.92-75.64-210.97-40.1-238.53,65.7-27.66,106.16,68.42,202.94,174.99,174.99,106.48-27.92,143.7-163.86,63.54-240.69Z"/>
  </g>
</svg>