<?xml version="1.0" encoding="UTF-8"?>
<svg id="Layer_1" data-name="Layer 1" xmlns="http://www.w3.org/2000/svg" viewBox="0 0 780.21 686.51">
  <defs>
    <style>
      .cls-1 {
        fill: #bcd000;
      }

      .cls-2 {
        fill: #6b6b6b;
      }
    </style>
  </defs>
  <g id="jODs2b.tif">
    <g>
      <path class="cls-2" d="M464.25,288.83h85.39c2.5,0,7.92,5.71,8.44,8.54,1.11,6-1.69,8.62-4.98,12.9-2.58,3.37-6.79,6.62-9.36,9.62-31.23,36.44-62.06,71.57-93.48,107.26-39.42,44.77-82.05,91.67-121.25,136.42-1.42,1.63-2.18,3.76-3.58,5.41,13.53,4.67,28.15,7.97,42.45,9.47,211.54,22.19,341.87-221.37,211.18-387.94-9.55-12.18-22.87-22.33-31.44-33.48-10.06-13.08,5.12-26.9,18.51-15.51,27.34,23.26,54.21,63.57,68.08,96.71,83.02,198.39-92.85,408.24-303.42,357.34-3.58-.87-21.53-7.18-22.69-6.96-1.56.29-11.56,13.04-13.63,15.32-13.43,14.83-27.17,30.99-41.38,46.51-1.62,1.77-1.97,4.22-4.53,6.46-7.9,6.91-18.48,3.27-19.97-7.12,33.8-76.12,68.79-151.91,103.97-227.46,4.02-8.62,7.98-17.43,12.84-25.61h-89.39c-2.85,0-8.55-4.52-9.28-7.7-2.28-10.03,6.48-16.71,12.74-23.79,41.07-46.43,83.81-92.78,125.22-138.94,32.17-35.86,64.83-71.37,96.51-107.71-19.72-9.09-43.61-14.44-65.41-16.47-159.65-14.85-285.5,125.92-256.87,282.83,9.97,54.62,39.54,101.8,79.73,137.99,7.24,6.52,26.09,15.6,14.88,27.82-8.96,9.76-19.96-1.81-27.01-7.69-100.83-84.23-125.44-231.87-54.32-344,63.39-99.95,185.7-145.31,299.8-110.21,4.12,1.27,26.07,10.49,27.49,10.12.47-.12,6.62-5.43,7.39-6.23,16.19-16.79,32.08-39.04,48.62-56.14,2.11-2.18,4.42-5.52,7.33-6.19,14.27-3.3,18.46,11.19,11.45,21.43l-110.03,237.02ZM285.47,372.73h82.39c4.62,0,10.2,11.97,6.26,16.25l-85.65,183.01,1.47,1.47,230.21-261.16c-6.37-.7-13.1-.74-19.52-.54-16.41.52-42.19,3.39-57.81.98-11.64-1.8-10.03-12.42-6.73-20.58,17.91-44.34,43.1-90.5,63.27-134.48,6.74-14.7,13.6-29.55,19.29-44.63l-233.19,259.67ZM288.47,574.48c-1.4-.72-2.66.63-1.99.98,1.4.72,2.66-.63,1.99-.98Z"/>
      <path class="cls-2" d="M9.56,290.07l96.55-.15c13.81,3.11,14.01,20.32.03,23.81H9.38c-12.43-4.11-12.66-19.91.18-23.67Z"/>
      <path class="cls-2" d="M672.71,394.93l97.56-.14c13.29,1.89,13.51,22.17-.88,23.9-29.17-2.83-65.5,3.74-93.81-.11-13.65-1.86-16.16-19.39-2.86-23.65Z"/>
    </g>
  </g>
  <path class="cls-1" d="M227.85,387.2h122.86c6.88,0,15.21,17.85,9.34,24.24l-127.71,272.88,2.19,2.19,343.27-389.41c-9.5-1.05-19.53-1.11-29.1-.81-24.46.77-62.91,5.06-86.21,1.46-17.35-2.68-14.95-18.51-10.03-30.69,26.7-66.12,64.27-134.95,94.34-200.52,10.05-21.92,20.28-44.06,28.76-66.54L227.85,387.2Z"/>
</svg>