<svg width="26" height="24" viewBox="0 0 26 24" fill="none" xmlns="http://www.w3.org/2000/svg">
<g clip-path="url(#clip0_2814_1414)">
<path d="M4.54269 0.837641C5.004 0.80805 5.54963 0.731685 5.74209 1.24905L7.43852 6.87138C7.74507 8.63444 4.5536 8.66976 4.90578 10.4548C5.19547 11.9229 10.0734 17.5672 11.5348 18.1074C12.9375 18.6258 13.9445 16.1592 15.1181 16.185C15.3205 16.1897 15.6121 16.31 15.8105 16.3807C17.5754 17.0154 19.3661 18.285 21.126 18.998C21.751 19.5526 20.7788 21.4035 20.3344 21.9505C17.9524 24.8857 13.13 23.3298 10.3145 21.8598C5.47424 19.3293 0.812529 13.4215 0.11114 8.09894C-0.325368 4.78568 0.401815 1.10396 4.54269 0.837641Z" fill="white"/>
<path d="M25.3611 10.2257C25.0595 10.5388 24.498 10.787 24.0546 10.8299C22.1786 11.0122 20.0328 10.6772 18.127 10.8538C17 11.3444 14.753 13.5571 13.6409 13.6048C11.9484 13.6783 12.7708 11.8427 12.5933 10.8347C11.6042 10.8061 10.8403 10.0816 10.7232 9.14991C10.5367 7.65126 10.5645 4.10222 10.7083 2.57016C10.8105 1.48579 11.5407 0.840506 12.6478 0.71355C16.256 0.95028 20.3056 0.394729 23.8611 0.708777C25.1171 0.819506 25.7887 1.57742 25.8939 2.76202C26.0337 4.32368 26.0347 7.31525 25.8889 8.87309C25.8472 9.31314 25.6766 9.89732 25.3601 10.2257H25.3611ZM14.8562 4.93173C13.5288 5.11596 13.8363 7.06229 15.1181 6.91529C16.4742 6.7597 16.1945 4.74654 14.8562 4.93173ZM18.2282 4.93077C16.6885 5.21332 17.5 7.49375 18.8849 6.80934C19.9425 6.28624 19.3224 4.73032 18.2282 4.93077ZM21.4028 4.93077C19.9871 5.19041 20.4613 7.19975 21.8522 6.89716C23.002 6.64802 22.6855 4.695 21.4028 4.93077Z" fill="white"/>
</g>
<defs>
<clipPath id="clip0_2814_1414">
<rect width="26" height="23" fill="white" transform="translate(0 0.610352)"/>
</clipPath>
</defs>
</svg>
