<?xml version="1.0" encoding="UTF-8"?>
<svg id="Layer_1" xmlns="http://www.w3.org/2000/svg" xmlns:xlink="http://www.w3.org/1999/xlink" version="1.1" viewBox="0 0 184 185">
  <!-- Generator: Adobe Illustrator 29.6.0, SVG Export Plug-In . SVG Version: 2.1.1 Build 207)  -->
  <defs>
    <style>
      .st0 {
        mask: url(#mask);
      }

      .st1 {
        fill: #96a500;
      }

      .st2 {
        fill: #595959;
      }

      .st3 {
        stroke-width: 1.81px;
      }

      .st3, .st4, .st5 {
        fill: none;
        stroke-miterlimit: 10;
      }

      .st3, .st5 {
        stroke: #a2a3a2;
      }

      .st6, .st7 {
        fill: #c5d417;
      }

      .st8 {
        mask: url(#mask-1);
      }

      .st4 {
        stroke: #fff;
        stroke-width: .48px;
      }

      .st9 {
        fill: #fff;
      }

      .st10 {
        fill: #6b6b6b;
      }

      .st5 {
        stroke-width: 1.79px;
      }

      .st7 {
        stroke: #96a500;
      }

      .st11 {
        fill: #eee;
      }
    </style>
    <mask id="mask" x="77.56" y="91.07" width="74.08" height="53.9" maskUnits="userSpaceOnUse">
      <g id="mask0_0_1">
        <g id="clippath">
          <path id="Vector" class="st9" d="M147.2,91.07h-65.22c-2.45,0-4.43,1.98-4.43,4.43v35.72c0,2.45,1.98,4.43,4.43,4.43h65.22c2.45,0,4.43-1.98,4.43-4.43v-35.72c0-2.45-1.98-4.43-4.43-4.43Z"/>
        </g>
      </g>
    </mask>
    <mask id="mask-1" x="-188.99" y="-61.14" width="118.61" height="53.17" maskUnits="userSpaceOnUse">
      <g id="mask0_2630_711">
        <path class="st9" d="M-100.86-21.47c0,2.42-1.76,4.37-3.94,4.37h-80.25c-2.17,0-3.94-1.96-3.94-4.37v-35.3c0-2.42,1.76-4.37,3.94-4.37h80.25c2.17,0,3.94,1.96,3.94,4.37V-21.47Z"/>
      </g>
    </mask>
  </defs>
  <g>
    <path class="st5" d="M-101.7,84.24h-83.81v6.34h18.9l-1.26,15.21-8.19,12.67-4.41,17.74-.63,5.07h5.04l11.97-18.37h41.28l11.79,18.37h4.97l-.62-5.07-4.35-17.74-8.07-12.67-1.24-15.21h18.62v-6.34Z"/>
    <path class="st1" d="M-152.27,62.06v16.53h5.05v-16.53h-5.05Z"/>
    <path class="st5" d="M-100.75,58.26h-85.7v10.77h9.92v15.21h3.78v-15.21h59.23v15.21h3.78v-15.21h8.98v-10.77Z"/>
    <path class="st10" d="M-112.88,82.33h-59.86v3.17h59.86v-3.17Z"/>
    <path class="st10" d="M-109.1,62.06h-69.03v2.59h69.03v-2.59Z"/>
    <path class="st2" d="M-154.12,57.75h-.93v11.24h.93v-11.24Z"/>
    <path class="st5" d="M-130.53,96.91h-25.84c-2.09,0-3.78,1.7-3.78,3.8s1.69,3.8,3.78,3.8h25.84c2.09,0,3.78-1.7,3.78-3.8s-1.69-3.8-3.78-3.8Z"/>
    <path class="st6" d="M-154.38,43.74v30.35h9.27v-30.35h-9.27Z"/>
  </g>
  <g>
    <path class="st1" d="M-151.45,199.5v26.67h8.19v-26.67h-8.19Z"/>
    <path class="st3" d="M-120.32,235.29h-84.68v17.68h.07v24.33h10.99l9.5-7.83v-16.5h93.82v16.78l9.93,7.56h10.55v-42.01h-50.18Z"/>
    <path class="st3" d="M-114.83,252.97h20.49-90.11"/>
    <path class="st3" d="M-67.86,193.37h-139.06v17.38h16.11v24.54h6.13v-24.54h96.12v24.54h6.13v-24.54h14.57v-17.38Z"/>
    <path class="st10" d="M-81.41,199.5h-112.01v4.19h112.01v-4.19Z"/>
    <path class="st2" d="M-154.46,192.54h-1.5v18.14h1.5v-18.14Z"/>
    <path class="st6" d="M-154.88,169.93v48.99h15.04v-48.99h-15.04Z"/>
  </g>
  <g id="Desktop">
    <g id="Frame_180">
      <g id="ikony">
        <g id="ikona_01">
          <g id="Group">
            <g id="Clip_path_group">
              <g class="st0">
                <g id="Group_2">
                  <path id="Vector_2" class="st10" d="M151.63,144.97v-15.77h-73.46v15.77h73.46Z"/>
                </g>
              </g>
            </g>
            <path id="Vector_3" class="st3" d="M57.26,84.48v69.41h.07v25.17h11.37l9.82-8.1v-17.07h72.02v17.35l10.28,7.82h10.92v-94.58H57.26ZM151.63,131.22c0,2.45-1.99,4.43-4.43,4.43h-65.22c-2.45,0-4.43-1.98-4.43-4.43v-35.72c0-2.45,1.98-4.43,4.43-4.43h65.22c2.45,0,4.43,1.99,4.43,4.43v35.72Z"/>
            <path id="Vector_4" class="st10" d="M130.07,74.37h-31.14v25.52h31.14v-25.52Z"/>
            <path id="Vector_5" class="st3" d="M45.02,83.76h-26.13c-3.65,0-6.62,2.96-6.62,6.62v82.41c0,3.65,2.96,6.62,6.62,6.62h26.13c3.65,0,6.62-2.96,6.62-6.62v-82.41c0-3.65-2.96-6.62-6.62-6.62Z"/>
            <path id="Vector_6" class="st10" d="M116.31,107.73h-3.57v13.58h3.57v-13.58Z"/>
            <path id="Vector_7" class="st2" d="M106.77,74.26h-3.22v25.58h3.22v-25.58Z"/>
            <path id="Vector_8" class="st2" d="M116.17,109.18h-3.22v3.63h3.22v-3.63Z"/>
            <path id="Vector_9" class="st2" d="M123.38,74.26h-.89v25.58h.89v-25.58Z"/>
            <path id="Vector_10" class="st2" d="M99.1,83.66h-3.16v8.09h3.16v-8.09Z"/>
            <path id="Vector_11" class="st7" d="M15.73,131.46v-36.07c0-2.1,1.7-3.79,3.79-3.79h24.67c2.09,0,3.79,1.7,3.79,3.79v36.07c0,2.1-1.7,3.79-3.79,3.79h-24.67c-2.1,0-3.79-1.7-3.79-3.79Z"/>
            <path id="Vector_12" class="st3" d="M150.53,153.9h21.19H57.32"/>
            <g id="Vector_13">
              <path class="st9" d="M116.14,115.1l3.33.11-3.53.99,3.9.62-3.9.62,3.77.76-3.77.41,3.08.68-3.08.41,3.08.62-3.16.35,3.37.62-3.37.34.27.48"/>
              <path class="st4" d="M116.14,115.1l3.33.11-3.53.99,3.9.62-3.9.62,3.77.76-3.77.41,3.08.68-3.08.41,3.08.62-3.16.35,3.37.62-3.37.34.27.48"/>
            </g>
            <path id="Vector_14" class="st6" d="M121.8,71.25h-15.77v37.86h15.77v-37.86Z"/>
          </g>
        </g>
      </g>
    </g>
  </g>
  <g>
    <path class="st10" d="M-149.26-16.57h6.54v-15.7h-6.54v15.7Z"/>
    <path class="st2" d="M-149.18-25.62v2.54h6.48v-2.54h-6.48Z"/>
    <path class="st3" d="M-132.23-67.73h-87.6V1.68h.07v25.17h11.37l9.82-8.11V1.68h97.05v17.35l10.28,7.82h10.92v-94.58h-51.91ZM-100.42-20.99c0,2.45-1.77,4.43-3.96,4.43h-80.66c-2.19,0-3.96-1.98-3.96-4.43v-35.72c0-2.45,1.77-4.43,3.96-4.43h80.66c2.19,0,3.96,1.98,3.96,4.43V-20.99Z"/>
    <path class="st6" d="M-185.45-46.35v12.91h10.58v-12.91h-10.58Z"/>
    <path class="st10" d="M-188.39-50.56v21.32h5.11v-21.32h-5.11Z"/>
    <path class="st11" d="M-174.38-42.85h-.46v6.48h.46v-6.48Z"/>
    <path class="st2" d="M-182.28-46.27h-1.06v12.76h1.06v-12.76Z"/>
    <path class="st1" d="M-116.79-46.35v12.91h12.01v-12.91h-12.01Z"/>
    <path class="st10" d="M-113.71-46.43v25.95h10.42v-25.95h-10.42Z"/>
    <path class="st6" d="M-121.13-42.92v6.54h17.82v-6.54h-17.82Z"/>
    <path class="st2" d="M-117.36-36.37h.52v-6.48h-.52v6.48Z"/>
    <path class="st2" d="M-108.37-33.51h1.2v-12.76h-1.2v12.76Z"/>
    <path class="st2" d="M-113.7-33.34v4.42h10.36v-4.42h-10.36Z"/>
    <path class="st7" d="M-213.6-46.72v-6.88c0-2.1,1.7-3.79,3.79-3.79h10.84c2.09,0,3.79,1.7,3.79,3.79v6.88c0,2.1-1.7,3.79-3.79,3.79h-10.84c-2.03,0-3.69-1.59-3.79-3.6v-.2Z"/>
    <path class="st3" d="M-126.55,1.69h21.19-114.41"/>
    <g class="st8">
      <path class="st10" d="M-78.18-7.97c4.31,0,7.8-3.49,7.8-7.79s-3.49-7.79-7.8-7.79h-73.38c-4.31,0-7.8,3.49-7.8,7.79s3.49,7.79,7.8,7.79h73.38Z"/>
    </g>
  </g>
</svg>