<?xml version="1.0" encoding="UTF-8"?>
<svg id="Layer_1" xmlns="http://www.w3.org/2000/svg" version="1.1" viewBox="0 0 1588.85 323.45">
  <!-- Generator: Adobe Illustrator 29.6.0, SVG Export Plug-In . SVG Version: 2.1.1 Build 207)  -->
  <defs>
    <style>
      .st0 {
        fill: #9b9b9b;
      }
    </style>
  </defs>
  <path class="st0" d="M165.49.05c9.5.27,19.77,1.54,29.18,3.46,42.62,8.7,81.09,35.31,103.93,72.15l-24.38,24.82c18.63,34.26,19.93,76.36,3.58,111.79l26.17,26.61c-22.22,41.57-63.26,71.97-109.6,81.32C106.72,337.89,21.05,281.58,3.32,194.32-16.87,94.95,57.55,2.96,158.2.05c2.4-.07,4.89-.07,7.29,0h0ZM161.48,74.37c-2.48-7.75-4.51-15.5-5.77-23.56-.36-2.28-.31-5.1-.8-7.22-.08-.36-.08-.71-.52-.83-20.67,2.01-40.28,9.22-57.2,21.11-19.62,13.78-37.39,36.5-43.1,60.05-2.33,9.59-3.66,19.69-4.55,29.52l3.46-13.48c4.41-14.37,10.65-28.62,22.8-38.08l1.46-.03,16.22,5.92c16.52-20.28,41.43-33.63,68-33.4h0ZM269.3,103.28c-11.67-20.73-24.05-31.51-44.4-43.63-1.13-.68-2.69-1.94-3.98-1.85,13.73,10.64,28.11,23.26,33.73,40.27,1.48,4.49,2.33,9.25,3.77,13.76l-.11.79-15.1,14.12c8.74,20.83,9.43,43.87,1.78,65.15-.97,2.71-2.33,5.26-3.27,7.98.18.46.54.43.91.56,5.13,1.73,11.72,2.61,17.22,4.29,4.38,1.34,8.66,3.01,12.99,4.5,15.5-32.8,14.28-74.27-3.55-105.94h0ZM162.88,77.35c-25.33-.47-50.37,11.71-65.95,31.46,4.73,2.07,10,4.44,12.91,8.95,5.27,8.19,5.41,30.18,4.17,39.81-2.36,18.47-10.58,35.04-22.79,48.88,13.73,22.59,39.04,37.98,65.52,39.34-.91-4.7-1.39-10.89.19-15.47,2.43-7.07,17.36-17.17,24-20.84,15.48-8.55,32.7-12.18,50.38-10.86,1.51.11,6.09,1.17,7.12.55,10.87-21.41,11.87-47.97,2.19-69.97-2.76,1.62-5.45,3.44-8.67,4.11-12.64,2.63-32.98-10.29-42.4-18.3-11.85-10.08-19.82-23.88-26.67-37.66h0ZM157.45,248.92c-28.04-1.2-53.44-16.99-68.73-40.1-5.8,6.98-13.03,12.7-19.78,18.76,18.6,27.1,49.4,45.52,82.19,49.33,10.09,1.17,21.23.29,31.14-1.95,14.38-3.26,27.58-11.53,40.11-18.95l-15.49,6.38c-15.1,5.35-31,8.2-46.54,2.68l-2.9-16.15h0Z"/>
  <path class="st0" d="M1256.61,76.2l-29.73,113.31c-2.67,9.79,1.43,19.76,12.41,20.77l69.61.03,35.23-134.1h43.03l-45.08,171.27-121.03-.03c-31.92-3.35-44.5-20.14-39.09-51.8,3.25-19.04,10.26-37.94,15.17-56.62,2.22-8.43,4.46-17.02,5.5-25.66h-66.01l-34.28,134.08h-43.03l34.28-134.08h-65.64l9.48-37.16h219.18Z"/>
  <path class="st0" d="M1588.84,76.2l-10.44,37.12-116.28.05c-10.33.41-24.31,19.04-14.16,26.9,7.32,5.66,26.91,3.21,36.04,2.98,25.72-.65,69.83-3.99,75.2,30.16,5.89,37.48-29.63,70.6-64.99,74.04h-123.81c1.68-8.56,3.58-17.17,5.94-25.58.49-1.76,2.99-11.13,4.15-11.52l115.54-.06c9.93-.32,21.77-14.08,17.16-23.69-4.26-8.88-23.27-6.72-31.36-6.53-33.59.77-85.52,7.14-82.63-42.11,1.39-23.67,20.75-45.03,41.34-54.88,11.71-5.61,22.28-5.94,35.06-6.51,28.93-1.29,57.85-.06,86.79.03,8.83.03,17.63-.43,26.46-.38v-.02Z"/>
  <path class="st0" d="M841.24,113.36c-.14-2.22.46-4.4.91-6.56,1.63-7.85,4.07-17.16,6.57-24.77.58-1.76,1.31-5.52,3.3-5.8l121.05-.03c56.21,5.11,47.15,68.91,8.54,92.7-13.35,8.22-30.02,11.29-45.55,11.51l43.76,67.04h-53.06c-.64-1.3-.78-2.2-1.56-3.54-2.09-3.57-5.9-7.7-8.4-11.28-7.36-10.54-14.19-21.47-21.65-31.93-3.57-5-9.46-14.05-13.78-17.93s-9.95-3.26-14.75-1.24l-16.99,65.92h-44.13l27.02-104.17c20.23-.17,40.47.09,60.7-.02s39.04-.58,58.53-.55c10.98-2.07,23.63-18.63,10.44-26.5-.71-.43-5.52-2.85-5.9-2.85h-115.06.01Z"/>
  <path class="st0" d="M579.04,141.42c2.34-11.91,5.2-25.45-10.49-27.95-12.51-2-30.14-1.56-42.95-.84-19.5,1.09-27.61,4.66-33.82,23.78-5.07,15.61-10.21,35.11-13.28,51.22-2.72,14.28-.4,21.13,15.02,22.66,13.81,1.37,35.19,1.72,48.86,0,15.86-1.99,22.44-14.25,26.08-28.42h42.3c-5.08,35.32-30.25,60.73-65.87,65.17-23.04,2.87-57.97,2.68-80.74-1.58-47-8.81-31.21-51.9-22.5-85.16s15.8-62.89,48.63-77.48c20.03-8.9,50.73-8.05,72.5-7.32,14.15.47,35.83.62,47.94,8.21,20.02,12.56,18.03,38.22,10.79,57.72h-42.49.02Z"/>
  <path class="st0" d="M805.5,143.24l-9.17,37.11-112.66.21c-2.13.51-3.09,4.86-3.72,6.85-2.34,7.35-3.83,15.31-5.37,22.87h113.42c-2.76,12.56-5.76,25.09-10.21,37.16h-155.72l26.07-104.21h157.36Z"/>
  <path class="st0" d="M823.37,76.2l-9.48,37.16h-157.18c3.08-12.43,5.38-25.13,9.85-37.16h156.81Z"/>
</svg>