<?xml version="1.0" encoding="UTF-8"?>
<svg id="Layer_1" xmlns="http://www.w3.org/2000/svg" version="1.1" viewBox="0 0 184 185">
  <!-- Generator: Adobe Illustrator 29.6.0, SVG Export Plug-In . SVG Version: 2.1.1 Build 207)  -->
  <defs>
    <style>
      .st0 {
        stroke-linecap: round;
        stroke-linejoin: round;
        stroke-width: 2px;
      }

      .st0, .st1 {
        stroke: #a2a3a2;
      }

      .st0, .st1, .st2 {
        fill: none;
      }

      .st3 {
        fill: #595959;
      }

      .st1 {
        stroke-width: 1.81px;
      }

      .st1, .st2 {
        stroke-miterlimit: 10;
      }

      .st4 {
        fill: #c5d417;
      }

      .st2 {
        stroke: #fff;
        stroke-width: .48px;
      }

      .st5 {
        fill: #fff;
      }

      .st6 {
        fill: #6b6b6b;
      }
    </style>
  </defs>
  <g id="Desktop">
    <g id="Frame_180">
      <g id="ikony">
        <g id="ikona_01">
          <g id="Group">
            <g id="Clip_path_group">
              <g id="Group_2">
                <path id="Vector_2" class="st6" d="M150.93,124.23v-5.6h-72.76v5.6h72.76Z"/>
              </g>
            </g>
            <path class="st0" d="M150.54,151.26l9.89-8.93h11.31v-68.41H57.26l.13,68.41M57.39,142.33h10.92l10.28,8.93h71.95M77.55,84.93c0-2.45,1.98-4.43,4.43-4.43h65.22c2.45,0,4.43,1.99,4.43,4.43v35.72c0,2.45-1.99,4.43-4.43,4.43h-65.22c-2.45,0-4.43-1.98-4.43-4.43v-35.72Z"/>
            <path id="Vector_5" class="st1" d="M45.02,83.76h-26.13c-3.65,0-6.62,2.96-6.62,6.62v82.41c0,3.65,2.96,6.62,6.62,6.62h26.13c3.65,0,6.62-2.96,6.62-6.62v-82.41c0-3.65-2.96-6.62-6.62-6.62Z"/>
            <path id="Vector_6" class="st6" d="M116.31,97.16h-3.57v13.58h3.57v-13.58Z"/>
            <path id="Vector_7" class="st3" d="M106.77,63.69h-3.22v25.58h3.22v-25.58Z"/>
            <path id="Vector_8" class="st3" d="M116.17,98.61h-3.22v3.63h3.22v-3.63Z"/>
            <path id="Vector_9" class="st3" d="M122.93,63.69h-.89v25.58h.89v-25.58Z"/>
            <path id="Vector_10" class="st3" d="M103.55,73.09h-3.16v8.09h3.16v-8.09Z"/>
            <path id="Vector_11" class="st4" d="M15.73,131.46v-36.07c0-2.1,1.7-3.79,3.79-3.79h24.67c2.09,0,3.79,1.7,3.79,3.79v36.07c0,2.1-1.7,3.79-3.79,3.79h-24.67c-2.1,0-3.79-1.7-3.79-3.79Z"/>
            <g id="Vector_13">
              <path class="st5" d="M116.14,104.53l3.33.11-3.53.99,3.9.62-3.9.62,3.77.76-3.77.41,3.08.68-3.08.41,3.08.62-3.16.35,3.37.62-3.37.34.27.48"/>
              <path class="st2" d="M116.14,104.53l3.33.11-3.53.99,3.9.62-3.9.62,3.77.76-3.77.41,3.08.68-3.08.41,3.08.62-3.16.35,3.37.62-3.37.34.27.48"/>
            </g>
            <path id="Vector_14" class="st4" d="M121.8,60.68h-15.77v37.86h15.77v-37.86Z"/>
          </g>
        </g>
      </g>
    </g>
  </g>
  <rect class="st0" x="137.22" y="151.26" width="10.57" height="28.15"/>
  <rect class="st0" x="81.43" y="151.26" width="10.57" height="28.15"/>
  <rect class="st0" x="92" y="151.26" width="45.22" height="16.98"/>
  <line class="st0" x1="140.85" y1="73.91" x2="95.99" y2="73.91"/>
  <line class="st0" x1="141.35" y1="80.5" x2="95.99" y2="80.5"/>
  <rect class="st5" x="95.99" y="74.91" width="39.8" height="4.7"/>
</svg>