<?xml version="1.0" encoding="UTF-8"?>
<svg id="Layer_1" xmlns="http://www.w3.org/2000/svg" xmlns:xlink="http://www.w3.org/1999/xlink" version="1.1" viewBox="0 0 184 185">
  <!-- Generator: Adobe Illustrator 29.6.0, SVG Export Plug-In . SVG Version: 2.1.1 Build 207)  -->
  <defs>
    <style>
      .st0, .st1 {
        fill: none;
      }

      .st2 {
        fill: #96a500;
      }

      .st3 {
        fill: #595959;
      }

      .st1, .st4 {
        stroke-width: 1.3px;
      }

      .st1, .st4, .st5 {
        stroke-linecap: round;
        stroke-linejoin: round;
      }

      .st1, .st4, .st5, .st6 {
        stroke: #a2a3a2;
      }

      .st4, .st5, .st6, .st7 {
        fill: #fff;
      }

      .st5, .st6 {
        stroke-width: 1.62px;
      }

      .st6 {
        stroke-miterlimit: 10;
      }

      .st8 {
        fill: #c5d417;
      }

      .st9 {
        fill: #595958;
      }

      .st10 {
        clip-path: url(#clippath);
      }

      .st11 {
        fill: #cede0f;
      }
    </style>
    <clipPath id="clippath">
      <path class="st0" d="M87.25,135.25c-2.99,4.89-9,7.75-14.35,9.29-6.24,1.8-13.47,2.81-19.49-.17-.54-.83-1.45-1.45-1.92-2.4v-1.92c1.47-3.17,4.06-5.31,7.04-7,6.48-3.68,18.64-6.75,25.69-3.76,3.55,1.5,3.2,2.65,3.03,5.97h0Z"/>
    </clipPath>
  </defs>
  <path id="Vector_3" class="st5" d="M32.08,182.58h7.48l6.46-8.1h0l47.4.28h0l6.77,7.82h7.19v-18.89l-75.35-.17v19.05"/>
  <path id="Vector_5" class="st4" d="M22.42,107.64H6.18c-2.27,0-4.11,1.48-4.11,3.31v41.23c0,1.83,1.84,3.31,4.11,3.31h16.24c2.27,0,4.11-1.48,4.11-3.31v-41.23c0-1.83-1.84-3.31-4.11-3.31Z"/>
  <path id="Vector_11" class="st8" d="M4.21,137.29v-22.42c0-1.31,1.06-2.36,2.36-2.36h15.33c1.3,0,2.36,1.06,2.36,2.36v22.42c0,1.31-1.06,2.36-2.36,2.36H6.57c-1.31,0-2.36-1.06-2.36-2.36Z"/>
  <polyline class="st1" points="26.53 115.98 30.73 115.98 30.73 151.36 26.53 151.36"/>
  <g>
    <path class="st9" d="M87.25,135.25c-2.99,4.89-9,7.75-14.35,9.29-6.24,1.8-13.47,2.81-19.49-.17-.54-.83-1.45-1.45-1.92-2.4v-1.92c1.47-3.17,4.06-5.31,7.04-7,6.48-3.68,18.64-6.75,25.69-3.76,3.55,1.5,3.2,2.65,3.03,5.97h0Z"/>
    <path class="st11" d="M68.05,154.93h-2.16c-4.26-.89-7.75-3.11-10.28-6.64-.93-1.3-1.4-2.68-2.2-3.92,6.02,2.98,13.25,1.97,19.49.17,5.35-1.54,11.36-4.4,14.35-9.29-.55,10.95-5.39,14.54-15.06,18.42l-4.14,1.26Z"/>
  </g>
  <g>
    <path class="st2" d="M65.83,90.98v25.52h9.16v-25.52h-9.16Z"/>
    <path class="st3" d="M74.99,111.09v1.47h-9.16v-1.47s9.16,0,9.16,0Z"/>
    <path class="st8" d="M61.98,60.39v50.7h16.82v-50.7s-16.82,0-16.82,0Z"/>
    <path class="st8" d="M69.78,115.63v7.39h1.57v-7.39h-1.57Z"/>
    <path class="st3" d="M71.35,115.63v1.47h-1.57v-1.47h1.57Z"/>
  </g>
  <path class="st6" d="M102.32,39.96H37.1c-3.52,0-6.37,4.19-6.37,9.35v102.31c0,5.16,2.85,9.35,6.37,9.35h65.22c3.52,0,6.37-4.19,6.37-9.35V49.31c0-5.16-2.85-9.35-6.37-9.35ZM101.61,143.24h0c-.11,3.22-2.62,5.8-5.43,5.8h-53.16c-2.81,0-5.09-2.58-5.2-5.8v-72.29h0c.11-3.22,2.62-5.8,5.43-5.8h53.16c2.81,0,5.09,2.58,5.2,5.8v72.29Z"/>
  <rect class="st7" x="52.52" y="149.85" width="35.29" height="9.78"/>
  <g class="st10">
    <g>
      <g>
        <line class="st1" x1="58.22" y1="140.49" x2="51.03" y2="146.4"/>
        <line class="st1" x1="65.23" y1="140.49" x2="58.03" y2="146.4"/>
        <line class="st1" x1="72.23" y1="140.49" x2="65.04" y2="146.4"/>
        <line class="st1" x1="79.23" y1="140.49" x2="72.04" y2="146.4"/>
      </g>
      <g>
        <line class="st1" x1="65.42" y1="134.57" x2="58.22" y2="140.49"/>
        <line class="st1" x1="72.42" y1="134.57" x2="65.23" y2="140.49"/>
        <line class="st1" x1="79.42" y1="134.57" x2="72.23" y2="140.49"/>
        <line class="st1" x1="86.43" y1="134.57" x2="79.23" y2="140.49"/>
      </g>
      <g>
        <line class="st1" x1="72.61" y1="128.65" x2="65.42" y2="134.57"/>
        <line class="st1" x1="65.42" y1="128.65" x2="48.56" y2="142.19"/>
        <line class="st1" x1="79.61" y1="128.65" x2="72.42" y2="134.57"/>
        <line class="st1" x1="86.62" y1="128.65" x2="79.42" y2="134.57"/>
        <line class="st1" x1="93.62" y1="128.65" x2="86.43" y2="134.57"/>
      </g>
    </g>
  </g>
</svg>