<?xml version="1.0" encoding="UTF-8"?>
<svg id="Layer_1" xmlns="http://www.w3.org/2000/svg" version="1.1" viewBox="0 0 184 185">
  <!-- Generator: Adobe Illustrator 29.6.0, SVG Export Plug-In . SVG Version: 2.1.1 Build 207)  -->
  <defs>
    <style>
      .st0, .st1 {
        stroke-linecap: round;
        stroke-linejoin: round;
        stroke-width: 2px;
      }

      .st0, .st1, .st2 {
        stroke: #a2a3a2;
      }

      .st0, .st3 {
        fill: none;
      }

      .st4 {
        fill: #595959;
      }

      .st5 {
        fill: #c5d417;
      }

      .st1, .st6, .st2 {
        fill: #fff;
      }

      .st3 {
        stroke: #fff;
        stroke-width: .48px;
      }

      .st3, .st2 {
        stroke-miterlimit: 10;
      }

      .st7 {
        fill: #6b6b6b;
      }

      .st2 {
        stroke-width: 1.81px;
      }
    </style>
  </defs>
  <g id="Desktop">
    <g id="Frame_180">
      <g id="ikony">
        <g id="ikona_01">
          <g id="Group">
            <g id="Clip_path_group">
              <g id="Group_2">
                <path id="Vector_2" class="st7" d="M140.59,127.24v-5.6h-72.76v5.6h72.76Z"/>
              </g>
            </g>
            <path class="st1" d="M140.2,154.27l9.89-8.93h11.31v-68.41H46.92l.13,68.41M47.05,145.34h10.92l10.28,8.93h71.95M67.21,87.94c0-2.45,1.98-4.43,4.43-4.43h65.22c2.45,0,4.43,1.99,4.43,4.43v35.72c0,2.45-1.99,4.43-4.43,4.43h-65.22c-2.45,0-4.43-1.98-4.43-4.43,0,0,0-35.72,0-35.72Z"/>
            <path id="Vector_5" class="st2" d="M34.68,86.77H8.55c-3.65,0-6.62,2.96-6.62,6.62v82.41c0,3.65,2.96,6.62,6.62,6.62h26.13c3.65,0,6.62-2.96,6.62-6.62v-82.41c0-3.65-2.96-6.62-6.62-6.62Z"/>
            <path id="Vector_6" class="st7" d="M105.97,100.17h-3.57v13.58h3.57v-13.58Z"/>
            <path id="Vector_7" class="st4" d="M96.43,66.7h-3.22v25.58h3.22s0-25.58,0-25.58Z"/>
            <path id="Vector_8" class="st4" d="M105.83,101.62h-3.22v3.63h3.22v-3.63Z"/>
            <path id="Vector_9" class="st4" d="M112.59,66.7h-.89v25.58h.89s0-25.58,0-25.58Z"/>
            <path id="Vector_10" class="st4" d="M93.21,76.1h-3.16v8.09h3.16v-8.09Z"/>
            <path id="Vector_11" class="st5" d="M5.39,134.47v-36.07c0-2.1,1.7-3.79,3.79-3.79h24.67c2.09,0,3.79,1.7,3.79,3.79v36.07c0,2.1-1.7,3.79-3.79,3.79H9.18c-2.1,0-3.79-1.7-3.79-3.79Z"/>
            <g id="Vector_13">
              <path class="st6" d="M105.8,107.54l3.33.11-3.53.99,3.9.62-3.9.62,3.77.76-3.77.41,3.08.68-3.08.41,3.08.62-3.16.35,3.37.62-3.37.34.27.48"/>
              <path class="st3" d="M105.8,107.54l3.33.11-3.53.99,3.9.62-3.9.62,3.77.76-3.77.41,3.08.68-3.08.41,3.08.62-3.16.35,3.37.62-3.37.34.27.48"/>
            </g>
            <path id="Vector_14" class="st5" d="M111.46,63.69h-15.77v37.86h15.77v-37.86Z"/>
          </g>
        </g>
      </g>
    </g>
  </g>
  <rect class="st1" x="126.88" y="154.27" width="10.57" height="28.15"/>
  <rect class="st1" x="71.09" y="154.27" width="10.57" height="28.15"/>
  <rect class="st1" x="81.66" y="154.27" width="45.22" height="16.98"/>
  <line class="st0" x1="130.51" y1="76.92" x2="85.65" y2="76.92"/>
  <line class="st0" x1="131.01" y1="83.51" x2="85.65" y2="83.51"/>
  <rect class="st6" x="85.65" y="77.92" width="39.8" height="4.7"/>
</svg>