<?xml version="1.0" encoding="UTF-8"?>
<svg id="Layer_1" xmlns="http://www.w3.org/2000/svg" version="1.1" viewBox="0 0 184 185">
  <!-- Generator: Adobe Illustrator 29.6.0, SVG Export Plug-In . SVG Version: 2.1.1 Build 207)  -->
  <defs>
    <style>
      .st0 {
        fill: #96a500;
      }

      .st1 {
        fill: #595959;
      }

      .st2 {
        fill: #fff;
        stroke: #a2a3a2;
        stroke-linecap: round;
        stroke-linejoin: round;
        stroke-width: 1.79px;
      }

      .st3 {
        fill: #c5d417;
      }

      .st4 {
        fill: #6b6b6b;
      }
    </style>
  </defs>
  <path class="st2" d="M85.93,126.54H2.13v6.34h18.9l-1.26,15.21-8.19,12.67-4.41,17.74-.63,5.07h5.04l11.97-18.37h41.28l11.79,18.37h4.97l-.62-5.07-4.35-17.74-8.07-12.67-1.24-15.21h18.62v-6.34ZM57.11,146.81h-25.84c-2.09,0-3.78-1.7-3.78-3.8s1.69-3.8,3.78-3.8h25.84c2.09,0,3.78,1.7,3.78,3.8s-1.69,3.8-3.78,3.8Z"/>
  <path class="st0" d="M35.37,104.36v16.53h5.05v-16.53h-5.05Z"/>
  <path class="st2" d="M86.88,100.56H1.18v10.77h9.92v15.21h3.78v-15.21h59.23v15.21h3.78v-15.21h8.98v-10.77h.01Z"/>
  <path class="st4" d="M74.75,124.64H14.89v3.17h59.86v-3.17Z"/>
  <path class="st4" d="M78.53,104.36H9.5v2.59h69.03v-2.59Z"/>
  <path class="st1" d="M33.51,100.05h-.93v11.24h.93v-11.24Z"/>
  <path class="st3" d="M33.25,86.05v30.35h9.27v-30.35h-9.27Z"/>
</svg>