<?xml version="1.0" encoding="UTF-8"?>
<svg id="Layer_1" xmlns="http://www.w3.org/2000/svg" version="1.1" viewBox="0 0 184 185">
  <!-- Generator: Adobe Illustrator 29.6.0, SVG Export Plug-In . SVG Version: 2.1.1 Build 207)  -->
  <defs>
    <style>
      .st0 {
        stroke-width: 2px;
      }

      .st0, .st1 {
        fill: none;
        stroke: #a2a3a2;
        stroke-linecap: round;
        stroke-linejoin: round;
      }

      .st2 {
        fill: #595959;
      }

      .st1 {
        stroke-width: 2.42px;
      }

      .st3 {
        fill: #c5d417;
      }

      .st4 {
        fill: #fff;
      }

      .st5 {
        fill: #6b6b6b;
      }
    </style>
  </defs>
  <path id="Vector_2" class="st5" d="M142.27,134.92v-7.24H38.75v7.24h103.52Z"/>
  <polygon class="st0" points="140.93 141.46 140.93 137.07 40.41 137.07 40.41 141.46 48.72 141.46 48.72 159.26 40.41 159.26 40.41 173.47 140.93 173.47 140.93 159.26 134.34 159.26 134.34 141.46 140.93 141.46"/>
  <path class="st0" d="M36.96,96.04"/>
  <path class="st1" d="M154.82,94.77v-7.73c0-5.31-4.31-9.62-9.62-9.62H37.26c-5.31,0-9.62,4.31-9.62,9.62v7.73"/>
  <polyline class="st1" points="27.63 94.77 27.63 145.91 27.63 154.82 27.63 157.08 35.84 157.08 35.84 154.82 43.49 154.82 43.49 145.91 35.84 145.91 35.84 104.28 35.84 96.04 146.61 96.04 146.61 104.28 146.61 145.91 138.97 145.91 138.97 154.82 146.61 154.82 146.61 157.08 154.82 157.08 154.82 154.82 154.82 145.91 154.82 94.77"/>
  <g>
    <path id="Vector_6" class="st5" d="M62.51,102.57h-2.5v16.03h2.5v-16.03Z"/>
    <path id="Vector_7" class="st2" d="M50.16,76.06h-4.64v21.06h4.64v-21.06Z"/>
    <path id="Vector_8" class="st2" d="M63.68,104.28h-4.73v4.28h4.73v-4.28Z"/>
    <path id="Vector_9" class="st2" d="M73.47,76.06h-1.28v21.06h1.28v-21.06Z"/>
    <path id="Vector_14" class="st3" d="M72.45,63.59h-23.19v38.94h23.19v-38.94Z"/>
    <polygon class="st4" points="65.04 108.56 60.01 119.88 63.88 119.88 65.04 108.56"/>
  </g>
</svg>