<?xml version="1.0" encoding="UTF-8"?>
<svg id="Layer_1" xmlns="http://www.w3.org/2000/svg" version="1.1" viewBox="0 0 184 185">
  <!-- Generator: Adobe Illustrator 29.6.0, SVG Export Plug-In . SVG Version: 2.1.1 Build 207)  -->
  <defs>
    <style>
      .st0 {
        stroke-width: 2px;
      }

      .st0, .st1 {
        stroke-linecap: round;
        stroke-linejoin: round;
      }

      .st0, .st1, .st2, .st3, .st4, .st5 {
        fill: none;
      }

      .st0, .st1, .st2, .st3, .st5 {
        stroke: #a2a3a2;
      }

      .st1 {
        stroke-width: 2.25px;
      }

      .st6 {
        fill: #595959;
      }

      .st2 {
        stroke-width: 1.81px;
      }

      .st2, .st3, .st4, .st5 {
        stroke-miterlimit: 10;
      }

      .st3 {
        stroke-width: 1.81px;
      }

      .st7 {
        fill: #c5d417;
      }

      .st4 {
        stroke: #fff;
        stroke-width: .48px;
      }

      .st8 {
        fill: #fff;
      }

      .st9 {
        fill: #6b6b6b;
      }

      .st5 {
        stroke-width: 2.21px;
      }
    </style>
  </defs>
  <path id="Vector_2" class="st9" d="M161.83,138.05v-5.6h-92.43v5.6h92.43Z"/>
  <path id="Vector_5" class="st2" d="M45.02,83.76h-26.13c-3.65,0-6.62,2.96-6.62,6.62v82.41c0,3.65,2.96,6.62,6.62,6.62h26.13c3.65,0,6.62-2.96,6.62-6.62v-82.41c0-3.65-2.96-6.62-6.62-6.62Z"/>
  <path id="Vector_11" class="st7" d="M15.73,131.46v-36.07c0-2.1,1.7-3.79,3.79-3.79h24.67c2.09,0,3.79,1.7,3.79,3.79v36.07c0,2.1-1.7,3.79-3.79,3.79h-24.67c-2.1,0-3.79-1.7-3.79-3.79Z"/>
  <path class="st8" d="M116.14,104.53l3.33.11-3.53.99,3.9.62-3.9.62,3.77.76-3.77.41,3.08.68-3.08.41,3.08.62-3.16.35,3.37.62-3.37.34.27.48"/>
  <rect class="st0" x="223.09" y="151.26" width="10.57" height="28.15"/>
  <rect class="st0" x="71.56" y="173.47" width="86.11" height="5.94"/>
  <line class="st1" x1="161.76" y1="106.84" x2="69.39" y2="106.84"/>
  <line class="st1" x1="161.83" y1="113.43" x2="69.39" y2="113.43"/>
  <path class="st0" d="M162.71,90.13v52.16c0,4.01-3.25,7.27-7.27,7.27h-78.78c-4.01,0-7.27-3.25-7.27-7.27v-52.16h-10.77l.13,68.41,10.36,4.35,10.84,4.59h12.76v5.28h46.31v-5.28h12.88l12.12-5.04,9.08-3.89v-68.41h-10.39Z"/>
  <g>
    <path id="Vector_6" class="st9" d="M117.77,115.37h-3.57v13.58h3.57v-13.58Z"/>
    <path id="Vector_7" class="st6" d="M108.1,105.76h-3.16v8.59h3.16v-8.59Z"/>
    <path id="Vector_8" class="st6" d="M117.63,116.82h-3.22v3.63h3.22v-3.63Z"/>
    <path id="Vector_9" class="st6" d="M123.95,105.76h-.87v8.59h.87v-8.59Z"/>
    <path id="Vector_10" class="st6" d="M104.94,108.92h-3.1v2.72h3.1v-2.72Z"/>
    <path class="st4" d="M117.4,125.44l3.33.11-3.53.99,3.9.62-3.9.62,3.77.76-3.77.41,3.08.68-3.08.41,3.08.62-3.16.35,3.37.62-3.37.34.27.48"/>
    <path id="Vector_14" class="st7" d="M123.26,83.76h-15.77v32.99h15.77v-32.99Z"/>
  </g>
  <rect class="st3" x="69.39" y="82.78" width="93.31" height="66.72" rx="7.64" ry="7.64"/>
  <path class="st5" d="M163.75,75.43h-95.73c-5.16,0-9.35,4.19-9.35,9.35v5.35h10.74c.15-4.09,3.51-7.35,7.63-7.35h78.02c4.12,0,7.48,3.27,7.63,7.35h10.41v-5.35c0-5.16-4.19-9.35-9.35-9.35Z"/>
</svg>