<?xml version="1.0" encoding="UTF-8"?>
<svg id="Layer_1" xmlns="http://www.w3.org/2000/svg" version="1.1" viewBox="0 0 184 185">
  <!-- Generator: Adobe Illustrator 29.6.0, SVG Export Plug-In . SVG Version: 2.1.1 Build 207)  -->
  <defs>
    <style>
      .st0, .st1, .st2, .st3, .st4, .st5, .st6, .st7 {
        stroke: #a2a3a2;
      }

      .st0, .st1, .st3, .st8, .st6 {
        fill: none;
      }

      .st0, .st2 {
        stroke-width: 2px;
      }

      .st0, .st2, .st3, .st4, .st5 {
        stroke-linecap: round;
        stroke-linejoin: round;
      }

      .st9 {
        fill: #595959;
      }

      .st1, .st8, .st6, .st7 {
        stroke-miterlimit: 10;
      }

      .st1, .st7 {
        stroke-width: 1.81px;
      }

      .st10 {
        fill: #c5d417;
      }

      .st2, .st4, .st5, .st11, .st7 {
        fill: #fff;
      }

      .st3, .st5 {
        stroke-width: 1.96px;
      }

      .st4 {
        stroke-width: 1.99px;
      }

      .st8 {
        stroke: #fff;
        stroke-width: .48px;
      }

      .st12 {
        fill: #6b6b6b;
      }

      .st6 {
        stroke-width: 2.21px;
      }
    </style>
  </defs>
  <polygon class="st5" points="60.66 110.11 60.66 116.69 65.91 116.69 65.91 155.27 65.91 162.16 65.91 163.91 71.2 163.91 71.2 162.16 76.13 162.16 76.13 155.27 71.2 155.27 71.2 116.69 142.59 116.69 142.59 155.27 137.66 155.27 137.66 162.16 142.59 162.16 142.59 163.91 147.88 163.91 147.88 162.16 147.88 155.27 147.88 116.69 153.09 116.69 153.09 110.11 60.66 110.11"/>
  <path id="Vector_2" class="st12" d="M139.79,146.77v-5.6h-66.71v5.6h66.71Z"/>
  <path id="Vector_5" class="st7" d="M35.2,86.89H9.07c-3.65,0-6.62,2.96-6.62,6.62v82.41c0,3.65,2.96,6.62,6.62,6.62h26.13c3.65,0,6.62-2.96,6.62-6.62v-82.41c0-3.65-2.96-6.62-6.62-6.62Z"/>
  <path id="Vector_11" class="st10" d="M5.91,134.59v-36.07c0-2.1,1.7-3.79,3.79-3.79h24.67c2.09,0,3.79,1.7,3.79,3.79v36.07c0,2.1-1.7,3.79-3.79,3.79H9.7c-2.1,0-3.79-1.7-3.79-3.79Z"/>
  <path class="st11" d="M346.65,80.2l3.33.11-3.53.99,3.9.62-3.9.62,3.77.76-3.77.41,3.08.68-3.08.41,3.08.62-3.16.35,3.37.62-3.37.34.27.48"/>
  <polygon class="st4" points="138.93 151.84 138.93 148.45 74.15 148.45 74.15 151.84 79.5 151.84 79.5 165.6 74.15 165.6 74.15 176.59 138.93 176.59 138.93 165.6 134.68 165.6 134.68 151.84 138.93 151.84"/>
  <rect class="st2" x="63.22" y="176.59" width="86.11" height="5.94"/>
  <path class="st0" d="M393.21,65.81v52.16c0,4.01-3.25,7.27-7.27,7.27h-78.78c-4.01,0-7.27-3.25-7.27-7.27v-52.16h-10.77l.13,68.41,10.36,4.35,10.84,4.59h12.76v5.28h46.31v-5.28h12.88l12.12-5.04,9.08-3.89v-68.42h-10.39Z"/>
  <g>
    <path id="Vector_6" class="st12" d="M109.27,118.5h-3.57v13.58h3.57s0-13.58,0-13.58Z"/>
    <path id="Vector_7" class="st9" d="M99.6,108.89h-3.16v8.59h3.16v-8.59Z"/>
    <path id="Vector_8" class="st9" d="M109.13,119.94h-3.22v3.63h3.22v-3.63Z"/>
    <path id="Vector_9" class="st9" d="M115.45,108.89h-.87v8.59h.87v-8.59Z"/>
    <path id="Vector_10" class="st9" d="M96.44,112.04h-3.1v2.72h3.1v-2.72Z"/>
    <path class="st8" d="M108.9,128.57l3.33.11-3.53.99,3.9.62-3.9.62,3.77.76-3.77.41,3.08.68-3.08.41,3.08.62-3.16.35,3.37.62-3.37.34.27.48"/>
    <path class="st8" d="M102.21,128.57l3.33.11-3.53.99,3.9.62-3.9.62,3.77.76-3.77.41,3.08.68-3.08.41,3.08.62-3.16.35,3.37.62-3.37.34.27.48"/>
    <path id="Vector_14" class="st10" d="M114.76,86.89h-15.77v32.99h15.77s0-32.99,0-32.99Z"/>
  </g>
  <rect class="st1" x="299.9" y="58.45" width="93.31" height="66.72" rx="7.64" ry="7.64"/>
  <path class="st6" d="M394.26,51.1h-95.73c-5.16,0-9.35,4.19-9.35,9.35v5.35h10.74c.15-4.09,3.51-7.35,7.63-7.35h78.02c4.12,0,7.48,3.27,7.63,7.35h10.41v-5.35c0-5.16-4.19-9.35-9.35-9.35h0Z"/>
  <line class="st3" x1="150.19" y1="116.69" x2="138.93" y2="116.69"/>
  <line class="st3" x1="71.92" y1="116.69" x2="60.66" y2="116.69"/>
</svg>