<?xml version="1.0" encoding="UTF-8"?>
<svg id="Layer_1" xmlns="http://www.w3.org/2000/svg" version="1.1" viewBox="0 0 184 185">
  <!-- Generator: Adobe Illustrator 29.6.0, SVG Export Plug-In . SVG Version: 2.1.1 Build 207)  -->
  <defs>
    <style>
      .st0 {
        fill: none;
      }

      .st0, .st1 {
        stroke-width: 2px;
      }

      .st0, .st1, .st2 {
        stroke-linecap: round;
        stroke-linejoin: round;
      }

      .st0, .st1, .st2, .st3 {
        stroke: #a2a3a2;
      }

      .st4 {
        fill: #595959;
      }

      .st5 {
        fill: #c5d417;
      }

      .st1, .st6, .st2, .st3 {
        fill: #fff;
      }

      .st2 {
        stroke-width: 2.42px;
      }

      .st7 {
        fill: #6b6b6b;
      }

      .st3 {
        stroke-miterlimit: 10;
        stroke-width: 1.81px;
      }
    </style>
  </defs>
  <path id="Vector_2" class="st7" d="M163.85,144.62v-7.24H60.33v7.24h103.52Z"/>
  <polygon class="st1" points="162.51 151.16 162.51 146.77 61.99 146.77 61.99 151.16 70.3 151.16 70.3 168.96 61.99 168.96 61.99 183.17 162.51 183.17 162.51 168.96 155.92 168.96 155.92 151.16 162.51 151.16"/>
  <path class="st0" d="M58.54,105.74"/>
  <path class="st2" d="M166.78,87.12H58.84c-5.31,0-9.62,4.31-9.62,9.62v7.73h0v62.31h8.21v-2.26h7.65v-8.91h-7.65v-49.87h110.77v49.87h-7.64v8.91h7.64v2.26h8.21v-70.04c0-5.31-4.31-9.62-9.62-9.62Z"/>
  <g>
    <path id="Vector_6" class="st7" d="M84.09,112.27h-2.5v16.03h2.5v-16.03Z"/>
    <path id="Vector_7" class="st4" d="M71.74,85.76h-4.64v21.06h4.64v-21.06Z"/>
    <path id="Vector_8" class="st4" d="M85.26,113.98h-4.73v4.28h4.73v-4.28Z"/>
    <path id="Vector_9" class="st4" d="M95.05,85.76h-1.28v21.06h1.28v-21.06Z"/>
    <path id="Vector_14" class="st5" d="M94.03,73.29h-23.19v38.94h23.19s0-38.94,0-38.94Z"/>
    <polygon class="st6" points="86.62 118.26 81.59 129.58 85.46 129.58 86.62 118.26"/>
  </g>
  <path id="Vector_5" class="st3" d="M34.9,88.36H8.77c-3.65,0-6.62,2.96-6.62,6.62v82.41c0,3.65,2.96,6.62,6.62,6.62h26.13c3.65,0,6.62-2.96,6.62-6.62v-82.41c0-3.65-2.96-6.62-6.62-6.62Z"/>
  <path id="Vector_11" class="st5" d="M5.61,136.06v-36.07c0-2.1,1.7-3.79,3.79-3.79h24.67c2.09,0,3.79,1.7,3.79,3.79v36.07c0,2.1-1.7,3.79-3.79,3.79H9.4c-2.1,0-3.79-1.7-3.79-3.79Z"/>
</svg>