<?xml version="1.0" encoding="UTF-8"?>
<svg id="Layer_1" xmlns="http://www.w3.org/2000/svg" version="1.1" viewBox="0 0 184 185">
  <!-- Generator: Adobe Illustrator 29.6.0, SVG Export Plug-In . SVG Version: 2.1.1 Build 207)  -->
  <defs>
    <style>
      .st0 {
        stroke-width: 2px;
      }

      .st0, .st1, .st2, .st3, .st4, .st5, .st6 {
        fill: none;
      }

      .st0, .st1, .st2, .st3, .st4, .st6 {
        stroke: #a2a3a2;
      }

      .st0, .st3, .st4 {
        stroke-linecap: round;
        stroke-linejoin: round;
      }

      .st7 {
        fill: #595959;
      }

      .st1 {
        stroke-width: 1.81px;
      }

      .st1, .st2, .st5, .st6 {
        stroke-miterlimit: 10;
      }

      .st2 {
        stroke-width: 1.81px;
      }

      .st8 {
        fill: #c5d417;
      }

      .st3 {
        stroke-width: 1.99px;
      }

      .st4 {
        stroke-width: 1.96px;
      }

      .st5 {
        stroke: #fff;
        stroke-width: .48px;
      }

      .st9 {
        fill: #fff;
      }

      .st10 {
        fill: #6b6b6b;
      }

      .st6 {
        stroke-width: 2.21px;
      }
    </style>
  </defs>
  <polygon class="st4" points="70.48 106.98 70.48 113.57 75.73 113.57 75.73 152.15 75.73 159.04 75.73 160.79 81.02 160.79 81.02 159.04 85.95 159.04 85.95 152.15 81.02 152.15 81.02 113.57 152.41 113.57 152.41 152.15 147.48 152.15 147.48 159.04 152.41 159.04 152.41 160.79 157.7 160.79 157.7 159.04 157.7 152.15 157.7 113.57 162.91 113.57 162.91 106.98 70.48 106.98"/>
  <path id="Vector_2" class="st10" d="M149.61,143.65v-5.6h-66.71v5.6h66.71Z"/>
  <path id="Vector_5" class="st1" d="M45.02,83.76h-26.13c-3.65,0-6.62,2.96-6.62,6.62v82.41c0,3.65,2.96,6.62,6.62,6.62h26.13c3.65,0,6.62-2.96,6.62-6.62v-82.41c0-3.65-2.96-6.62-6.62-6.62Z"/>
  <path id="Vector_11" class="st8" d="M15.73,131.46v-36.07c0-2.1,1.7-3.79,3.79-3.79h24.67c2.09,0,3.79,1.7,3.79,3.79v36.07c0,2.1-1.7,3.79-3.79,3.79h-24.67c-2.1,0-3.79-1.7-3.79-3.79Z"/>
  <path class="st9" d="M356.47,77.08l3.33.11-3.53.99,3.9.62-3.9.62,3.77.76-3.77.41,3.08.68-3.08.41,3.08.62-3.16.35,3.37.62-3.37.34.27.48"/>
  <polygon class="st3" points="148.75 148.71 148.75 145.32 83.97 145.32 83.97 148.71 89.32 148.71 89.32 162.48 83.97 162.48 83.97 173.47 148.75 173.47 148.75 162.48 144.5 162.48 144.5 148.71 148.75 148.71"/>
  <rect class="st0" x="73.04" y="173.47" width="86.11" height="5.94"/>
  <path class="st0" d="M403.03,62.69v52.16c0,4.01-3.25,7.27-7.27,7.27h-78.78c-4.01,0-7.27-3.25-7.27-7.27v-52.16h-10.77l.13,68.41,10.36,4.35,10.84,4.59h12.76v5.28h46.31v-5.28h12.88l12.12-5.04,9.08-3.89V62.69h-10.39Z"/>
  <g>
    <path id="Vector_6" class="st10" d="M119.09,115.37h-3.57v13.58h3.57v-13.58Z"/>
    <path id="Vector_7" class="st7" d="M109.42,105.76h-3.16v8.59h3.16v-8.59Z"/>
    <path id="Vector_8" class="st7" d="M118.95,116.82h-3.22v3.63h3.22v-3.63Z"/>
    <path id="Vector_9" class="st7" d="M125.27,105.76h-.87v8.59h.87v-8.59Z"/>
    <path id="Vector_10" class="st7" d="M106.26,108.92h-3.1v2.72h3.1v-2.72Z"/>
    <path class="st5" d="M118.72,125.44l3.33.11-3.53.99,3.9.62-3.9.62,3.77.76-3.77.41,3.08.68-3.08.41,3.08.62-3.16.35,3.37.62-3.37.34.27.48"/>
    <path class="st5" d="M112.03,125.44l3.33.11-3.53.99,3.9.62-3.9.62,3.77.76-3.77.41,3.08.68-3.08.41,3.08.62-3.16.35,3.37.62-3.37.34.27.48"/>
    <path id="Vector_14" class="st8" d="M124.58,83.76h-15.77v32.99h15.77v-32.99Z"/>
  </g>
  <rect class="st2" x="309.72" y="55.33" width="93.31" height="66.72" rx="7.64" ry="7.64"/>
  <path class="st6" d="M404.08,47.98h-95.73c-5.16,0-9.35,4.19-9.35,9.35v5.35h10.74c.15-4.09,3.51-7.35,7.63-7.35h78.02c4.12,0,7.48,3.27,7.63,7.35h10.41v-5.35c0-5.16-4.19-9.35-9.35-9.35Z"/>
  <line class="st4" x1="160.01" y1="113.57" x2="148.75" y2="113.57"/>
  <line class="st4" x1="81.74" y1="113.57" x2="70.48" y2="113.57"/>
</svg>