<?xml version="1.0" encoding="UTF-8"?>
<svg id="Layer_1" xmlns="http://www.w3.org/2000/svg" version="1.1" viewBox="0 0 184 185">
  <!-- Generator: Adobe Illustrator 29.6.0, SVG Export Plug-In . SVG Version: 2.1.1 Build 207)  -->
  <defs>
    <style>
      .st0 {
        fill: none;
      }

      .st0, .st1 {
        stroke-width: 2px;
      }

      .st0, .st1, .st2 {
        stroke: #a2a3a2;
        stroke-linecap: round;
        stroke-linejoin: round;
      }

      .st3 {
        fill: #595959;
      }

      .st4 {
        fill: #c5d417;
      }

      .st1, .st5, .st2 {
        fill: #fff;
      }

      .st2 {
        stroke-width: 2.42px;
      }

      .st6 {
        fill: #6b6b6b;
      }
    </style>
  </defs>
  <path id="Vector_2" class="st6" d="M116.52,144.62v-7.24H13v7.24h103.52Z"/>
  <polygon class="st1" points="115.18 151.16 115.18 146.77 14.66 146.77 14.66 151.16 22.97 151.16 22.97 168.96 14.66 168.96 14.66 183.17 115.18 183.17 115.18 168.96 108.59 168.96 108.59 151.16 115.18 151.16"/>
  <path class="st0" d="M11.21,105.74"/>
  <path class="st2" d="M119.45,87.12H11.51c-5.31,0-9.62,4.31-9.62,9.62v7.73h-.01v62.31h8.21v-2.26h7.65v-8.91h-7.65v-49.87h110.77v49.87h-7.64v8.91h7.64v2.26h8.21v-70.04c0-5.31-4.31-9.62-9.62-9.62Z"/>
  <g>
    <path id="Vector_6" class="st6" d="M36.76,112.27h-2.5v16.03h2.5v-16.03Z"/>
    <path id="Vector_7" class="st3" d="M24.41,85.76h-4.64v21.06h4.64v-21.06Z"/>
    <path id="Vector_8" class="st3" d="M37.93,113.98h-4.73v4.28h4.73v-4.28Z"/>
    <path id="Vector_9" class="st3" d="M47.72,85.76h-1.28v21.06h1.28v-21.06Z"/>
    <path id="Vector_14" class="st4" d="M46.7,73.29h-23.19v38.94h23.19v-38.94Z"/>
    <polygon class="st5" points="39.29 118.26 34.26 129.58 38.13 129.58 39.29 118.26"/>
  </g>
</svg>