<?xml version="1.0" encoding="UTF-8"?>
<svg id="Layer_1" xmlns="http://www.w3.org/2000/svg" version="1.1" viewBox="0 0 184 185">
  <!-- Generator: Adobe Illustrator 29.6.0, SVG Export Plug-In . SVG Version: 2.1.1 Build 207)  -->
  <defs>
    <style>
      .st0 {
        stroke-width: 2.25px;
      }

      .st0, .st1 {
        stroke-linecap: round;
        stroke-linejoin: round;
      }

      .st0, .st1, .st2, .st3 {
        stroke: #a2a3a2;
      }

      .st0, .st4 {
        fill: none;
      }

      .st5 {
        fill: #595959;
      }

      .st6 {
        fill: #c5d417;
      }

      .st1 {
        stroke-width: 2px;
      }

      .st1, .st7, .st2, .st3 {
        fill: #fff;
      }

      .st4 {
        stroke: #fff;
        stroke-width: .48px;
      }

      .st4, .st2, .st3 {
        stroke-miterlimit: 10;
      }

      .st8 {
        fill: #6b6b6b;
      }

      .st2 {
        stroke-width: 2.21px;
      }

      .st3 {
        stroke-width: 1.81px;
      }
    </style>
  </defs>
  <path id="Vector_2" class="st8" d="M151.44,142.22v-5.6H59.01v5.6h92.43Z"/>
  <path id="Vector_5" class="st3" d="M34.63,87.93H8.5c-3.65,0-6.62,2.96-6.62,6.62v82.41c0,3.65,2.96,6.62,6.62,6.62h26.13c3.65,0,6.62-2.96,6.62-6.62v-82.41c0-3.65-2.96-6.62-6.62-6.62Z"/>
  <path id="Vector_11" class="st6" d="M5.34,135.63v-36.07c0-2.1,1.7-3.79,3.79-3.79h24.67c2.09,0,3.79,1.7,3.79,3.79v36.07c0,2.1-1.7,3.79-3.79,3.79H9.13c-2.1,0-3.79-1.7-3.79-3.79Z"/>
  <path class="st7" d="M105.75,108.7l3.33.11-3.53.99,3.9.62-3.9.62,3.77.76-3.77.41,3.08.68-3.08.41,3.08.62-3.16.35,3.37.62-3.37.34.27.48"/>
  <rect class="st1" x="61.17" y="177.64" width="86.11" height="5.94"/>
  <line class="st0" x1="151.37" y1="111.01" x2="59" y2="111.01"/>
  <line class="st0" x1="151.44" y1="117.6" x2="59" y2="117.6"/>
  <g>
    <path id="Vector_6" class="st8" d="M107.38,119.54h-3.57v13.58h3.57s0-13.58,0-13.58Z"/>
    <path id="Vector_7" class="st5" d="M97.71,109.93h-3.16v8.59h3.16v-8.59Z"/>
    <path id="Vector_8" class="st5" d="M107.24,120.99h-3.22v3.63h3.22v-3.63Z"/>
    <path id="Vector_9" class="st5" d="M113.56,109.93h-.87v8.59h.87v-8.59Z"/>
    <path id="Vector_10" class="st5" d="M94.55,113.09h-3.1v2.72h3.1v-2.72Z"/>
    <path class="st4" d="M107.01,129.61l3.33.11-3.53.99,3.9.62-3.9.62,3.77.76-3.77.41,3.08.68-3.08.41,3.08.62-3.16.35,3.37.62-3.37.34.27.48"/>
    <path id="Vector_14" class="st6" d="M112.87,87.93h-15.77v32.99h15.77s0-32.99,0-32.99Z"/>
  </g>
  <path class="st2" d="M153.36,79.59H57.63c-5.16,0-9.35,4.19-9.35,9.35v5.35h-.05l.13,68.41,10.36,4.35,10.84,4.59h12.76v5.28h46.31v-5.28h12.88l12.12-5.04,9.08-3.89v-73.77c0-5.16-4.19-9.35-9.35-9.35ZM152.32,94.9v51.55c0,4.01-3.25,7.27-7.27,7.27h-78.78c-4.01,0-7.27-3.25-7.27-7.27v-52.16h.02c.15-4.09,3.51-7.35,7.63-7.35h78.02c4.12,0,7.5,3.28,7.65,7.36v.6Z"/>
</svg>