<svg width="217" height="218" viewBox="0 0 217 218" fill="none" xmlns="http://www.w3.org/2000/svg" xmlns:xlink="http://www.w3.org/1999/xlink">
<path d="M114.146 0.731328L216.857 103.442L102.711 217.588L-1.4082e-05 114.877L114.146 0.731328Z" fill="url(#pattern0_2791_923)" fill-opacity="0.29"/>
<defs>
<pattern id="pattern0_2791_923" patternUnits="userSpaceOnUse" viewBox="-1086.76 650.885 281.234 174.421" width="48.403371887837579%" height="27.012540846632859%" x="39.8033" patternContentUnits="objectBoundingBox">
<g id="pattern0_2791_923_inner">
<g clip-path="url(#clip0_2791_923)">
<path d="M-1030.1 488.374L-1033.72 483.22L-1219.4 613.8L-1215.78 618.953L-1030.1 488.374Z" fill="white"/>
<path d="M-1013.8 511.555L-1017.42 506.402L-1203.1 636.982L-1199.48 642.135L-1013.8 511.555Z" fill="white"/>
<path d="M-997.499 534.729L-1001.12 529.575L-1186.81 660.155L-1183.18 665.309L-997.499 534.729Z" fill="white"/>
<path d="M-981.197 557.91L-984.821 552.757L-1170.5 683.337L-1166.88 688.49L-981.197 557.91Z" fill="white"/>
<path d="M-964.894 581.092L-968.518 575.939L-1154.2 706.519L-1150.58 711.672L-964.894 581.092Z" fill="white"/>
<path d="M-948.592 604.274L-952.216 599.12L-1137.9 729.7L-1134.27 734.854L-948.592 604.274Z" fill="white"/>
<path d="M-932.295 627.447L-935.919 622.294L-1121.6 752.874L-1117.98 758.027L-932.295 627.447Z" fill="white"/>
<path d="M-915.993 650.629L-919.617 645.476L-1105.3 776.055L-1101.68 781.209L-915.993 650.629Z" fill="white"/>
</g>
</g>
<use xlink:href="#pattern0_2791_923_inner" transform="translate(0 131.297)"/>
<use xlink:href="#pattern0_2791_923_inner" transform="translate(131.297 65.6486)"/>
<use xlink:href="#pattern0_2791_923_inner" transform="translate(131.297 196.946)"/>
<use xlink:href="#pattern0_2791_923_inner" transform="translate(262.594 0)"/>
<use xlink:href="#pattern0_2791_923_inner" transform="translate(262.594 131.297)"/>
<use xlink:href="#pattern0_2791_923_inner" transform="translate(393.892 0)"/>
<use xlink:href="#pattern0_2791_923_inner" transform="translate(393.892 131.297)"/>
</pattern><clipPath id="clip0_2791_923">
<rect width="227" height="227" fill="white" transform="translate(-1171.04 499) rotate(9.88345)"/>
</clipPath>
</defs>
</svg>
