<svg width="1465" height="64" viewBox="0 0 1465 64" fill="none" xmlns="http://www.w3.org/2000/svg" xmlns:xlink="http://www.w3.org/1999/xlink">
<rect width="1465" height="64" fill="url(#pattern0_2791_439)" fill-opacity="0.44"/>
<defs>
<pattern id="pattern0_2791_439" patternUnits="userSpaceOnUse" viewBox="-1194.76 326.885 151.885 151.885" width="2.5918951255958209%" height="59.330099359341837%" x="699.676" patternContentUnits="objectBoundingBox">
<g id="pattern0_2791_439_inner">
<g clip-path="url(#clip0_2791_439)">
<path d="M-1138.1 164.374L-1141.72 159.22L-1327.4 289.8L-1323.78 294.953L-1138.1 164.374Z" fill="white"/>
<path d="M-1121.8 187.555L-1125.42 182.402L-1311.1 312.982L-1307.48 318.135L-1121.8 187.555Z" fill="white"/>
<path d="M-1105.5 210.729L-1109.12 205.575L-1294.81 336.155L-1291.18 341.309L-1105.5 210.729Z" fill="white"/>
<path d="M-1089.2 233.91L-1092.82 228.757L-1278.5 359.337L-1274.88 364.49L-1089.2 233.91Z" fill="white"/>
<path d="M-1072.89 257.092L-1076.52 251.939L-1262.2 382.519L-1258.58 387.672L-1072.89 257.092Z" fill="white"/>
<path d="M-1056.59 280.274L-1060.22 275.12L-1245.9 405.7L-1242.27 410.854L-1056.59 280.274Z" fill="white"/>
<path d="M-1040.3 303.447L-1043.92 298.294L-1229.6 428.874L-1225.98 434.027L-1040.3 303.447Z" fill="white"/>
<path d="M-1023.99 326.629L-1027.62 321.476L-1213.3 452.055L-1209.68 457.209L-1023.99 326.629Z" fill="white"/>
</g>
</g>
<use xlink:href="#pattern0_2791_439_inner"
     transform="translate(0 0)
                translate(0   -50)
                translate(0  -100)
                translate(0  -150)
                translate(0  -200)" />
</pattern><clipPath id="clip0_2791_439">
<rect width="227" height="227" fill="white" transform="translate(-1279.04 115) rotate(9.88345)"/>
</clipPath>
</defs>
</svg>
