<?xml version="1.0" encoding="UTF-8"?>
<svg id="Layer_1" xmlns="http://www.w3.org/2000/svg" xmlns:xlink="http://www.w3.org/1999/xlink" version="1.1" viewBox="0 0 106.63 106.63">
  <!-- Generator: Adobe Illustrator 29.6.0, SVG Export Plug-In . SVG Version: 2.1.1 Build 207)  -->
  <defs>
    <style>
      .st0 {
        fill: none;
      }

      .st1 {
        fill: #e2e2e2;
      }

      .st2 {
        fill: #c5d417;
      }

      .st3 {
        fill: #606060;
      }

      .st4 {
        clip-path: url(#clippath-1);
      }

      .st5 {
        fill: #fff;
      }

      .st6 {
        opacity: .47;
      }

      .st7 {
        clip-path: url(#clippath);
      }
    </style>
    <clipPath id="clippath">
      <circle class="st0" cx="52.16" cy="54.17" r="42.53" transform="translate(-3.36 104.89) rotate(-88.49)"/>
    </clipPath>
    <clipPath id="clippath-1">
      <path class="st0" d="M39.82,39.98c1.41.69,9.76,9.73,9.76,9.73l-3.94,7.96-.12,12.28h-12.17l-2.43-21.06,1.62-7.88,7.28-1.03Z"/>
    </clipPath>
  </defs>
  <circle class="st3" cx="52.16" cy="54.17" r="42.53"/>
  <g class="st6">
    <g class="st7">
      <g>
        <g id="vBIXMQ.tif">
          <path class="st1" d="M48.6,68.48c.22-.22-.07-5.27,0-6.2.5-7.09,2.22-14.48,2.76-21.61.36-1.09-.02-3.37,1.67-2.31l.43,4.36c.74,6.52,2.25,13.45,2.71,19.98.13,1.88-.1,3.89,0,5.78h4.83v-17.23h-4.1c-.07,0-.44-.41-.48-.57-.32-1.04.5-2.59,1.36-3.18.39-.27,1.64-.64,1.71-.71s.21-.88.38-1.2c.45-.88,1.53-1.75,2.51-1.9.8-.12,4.49-.13,5.19.04,1.09.27,2.04,1.4,2.42,2.42.07.2,0,.58.07.66s.46,0,.66.07c1.57.58,2.9,2.24,2.49,4.01-.03.12-.49.35-.53.35h-4.1v17.23c1.01.02,2.03-.02,3.05,0,.35,0,.7.22,1.05.22.54,0,1-.37,1.64-.18.95.29.41,1.43.04,1.43H30.42c-.83,0-.57-1.47-.21-1.47h5.78v-17.23c-1.04-.14-3.43.61-2.91-1.12l6.15-6.25c.29-.24.67-.24,1.03-.2l6.44,6.45c.39,1.74-2.07.95-3.15,1.12v17.23h5.05ZM66.68,49.78l-2.62-4.62c-1.59-.68-2.46.2-3.1,1.53-.16.34-.13.82-.36,1.11-.31.4-1.41.29-1.97.71-.31.24-.55.92-.78,1.27h8.83ZM71.72,49.78c.03-.65-.85-1.47-1.42-1.63-.44-.13-1.01.08-1.34-.35-.29-.37-.13-.83-.24-1.23-.18-.61-1.01-1.36-1.62-1.53-.26-.07-1.7-.35-1.48.21.43.54,2.53,4.52,2.84,4.52h3.26ZM35.57,49.78h6.1c.07-.28-.08-.37-.17-.56-.33-.7-1.04-1.78-1.47-2.52-.15-.25-.44-1-.77-.91-.14.04-.21.42-.41.64-.85.89-1.87,1.72-2.75,2.62-.13.13-.77.52-.52.74h0ZM51.13,53.35c.22.21.59-.3.74-.42.81-.68,1.62-1.38,1.36-2.52-.3.12-1.58,1.21-1.68,1.41-.08.17-.48,1.48-.42,1.53ZM42.3,51.25h-4.83v17.23h2.94v-15.23c0-.56,1.47-.27,1.47.21v15.02h.42s0-17.23,0-17.23ZM67.31,51.25h-4.83v17.23h2.94v-15.23c0-.42,1.26-.42,1.26,0v15.23h.63s0-17.23,0-17.23ZM50.71,57.13c.56-.53,2.88-2.48,2.94-3.05.03-.26-.11-.74-.32-.73-.24,0-3.2,2.97-2.63,3.78h.01ZM53.86,56.29l-1.05.73c-.84,1.3-2.86,1.96-2.52,3.68l1.06-.72c.31-.73,2.6-2.36,2.63-2.94,0-.1-.09-.71-.11-.75h-.01ZM49.86,63.33v5.15h3.15v-2.94s.65-.18.7-.17c.91.17.45,2.4.56,3.12h.63v-5.57c-.27-.14-.05-1.18-.52-.94s-2.16,2.84-2.61,1.12c-.25-.97,3.37-2.6,2.4-4.06l-4.31,4.31v-.02Z"/>
        </g>
        <g id="vBIXMQ.tif1">
          <path class="st1" d="M91.82,68.48c.22-.22-.07-5.27,0-6.2.5-7.09,2.22-14.48,2.76-21.61.36-1.09-.02-3.37,1.67-2.31l.43,4.36c.74,6.52,2.25,13.45,2.71,19.98.13,1.88-.1,3.89,0,5.78h4.83v-17.23h-4.1c-.07,0-.44-.41-.48-.57-.32-1.04.5-2.59,1.36-3.18.39-.27,1.64-.64,1.71-.71s.21-.88.38-1.2c.45-.88,1.53-1.75,2.51-1.9.8-.12,4.49-.13,5.19.04,1.09.27,2.04,1.4,2.42,2.42.07.2,0,.58.07.66s.46,0,.66.07c1.57.58,2.9,2.24,2.49,4.01-.03.12-.49.35-.53.35h-4.1v17.23c1.01.02,2.03-.02,3.05,0,.35,0,.7.22,1.05.22.54,0,1-.37,1.64-.18.95.29.41,1.43.04,1.43h-43.93c-.83,0-.57-1.47-.21-1.47h5.78v-17.23c-1.04-.14-3.43.61-2.91-1.12l6.15-6.25c.29-.24.67-.24,1.03-.2l6.44,6.45c.39,1.74-2.07.95-3.15,1.12v17.23h5.04,0ZM109.89,49.78l-2.62-4.62c-1.59-.68-2.46.2-3.1,1.53-.16.34-.13.82-.36,1.11-.31.4-1.41.29-1.97.71-.31.24-.55.92-.78,1.27h8.83ZM114.94,49.78c.03-.65-.85-1.47-1.42-1.63-.44-.13-1.01.08-1.34-.35-.29-.37-.13-.83-.24-1.23-.18-.61-1.01-1.36-1.62-1.53-.26-.07-1.7-.35-1.48.21.43.54,2.53,4.52,2.84,4.52h3.26ZM78.78,49.78h6.1c.07-.28-.08-.37-.17-.56-.33-.7-1.04-1.78-1.47-2.52-.15-.25-.44-1-.77-.91-.14.04-.21.42-.41.64-.85.89-1.87,1.72-2.75,2.62-.13.13-.77.52-.52.74h-.01ZM94.34,53.35c.22.21.59-.3.74-.42.81-.68,1.62-1.38,1.36-2.52-.3.12-1.58,1.21-1.68,1.41-.08.17-.48,1.48-.42,1.53ZM85.51,51.25h-4.83v17.23h2.94v-15.23c0-.56,1.47-.27,1.47.21v15.02h.42s0-17.23,0-17.23ZM110.52,51.25h-4.83v17.23h2.94v-15.23c0-.42,1.26-.42,1.26,0v15.23h.63s0-17.23,0-17.23ZM93.92,57.13c.56-.53,2.88-2.48,2.94-3.05.03-.26-.11-.74-.32-.73-.24,0-3.2,2.97-2.63,3.78h0ZM97.07,56.29l-1.05.73c-.84,1.3-2.86,1.96-2.52,3.68l1.06-.72c.31-.73,2.6-2.36,2.63-2.94,0-.1-.09-.71-.11-.75h0ZM93.08,63.33v5.15h3.15v-2.94s.65-.18.7-.17c.91.17.45,2.4.56,3.12h.63v-5.57c-.27-.14-.05-1.18-.52-.94s-2.16,2.84-2.61,1.12c-.25-.97,3.37-2.6,2.4-4.06l-4.31,4.31v-.02Z"/>
        </g>
        <g id="vBIXMQ.tif2">
          <path class="st1" d="M4.48,68.48c.22-.22-.07-5.27,0-6.2.5-7.09,2.22-14.48,2.76-21.61.36-1.09-.02-3.37,1.67-2.31l.43,4.36c.74,6.52,2.25,13.45,2.71,19.98.13,1.88-.1,3.89,0,5.78h4.83v-17.23h-4.1c-.07,0-.44-.41-.48-.57-.32-1.04.5-2.59,1.36-3.18.39-.27,1.64-.64,1.71-.71s.21-.88.38-1.2c.45-.88,1.53-1.75,2.51-1.9.8-.12,4.49-.13,5.19.04,1.09.27,2.04,1.4,2.42,2.42.07.2,0,.58.07.66s.46,0,.66.07c1.57.58,2.9,2.24,2.49,4.01-.03.12-.49.35-.53.35h-4.1v17.23c1.01.02,2.03-.02,3.05,0,.35,0,.7.22,1.05.22.54,0,1-.37,1.64-.18.95.29.41,1.43.04,1.43H-13.7c-.83,0-.57-1.47-.21-1.47h5.78v-17.23c-1.04-.14-3.43.61-2.91-1.12l6.15-6.25c.29-.24.67-.24,1.03-.2l6.44,6.45c.39,1.74-2.07.95-3.15,1.12v17.23h5.05ZM22.56,49.78l-2.62-4.62c-1.59-.68-2.46.2-3.1,1.53-.16.34-.13.82-.36,1.11-.31.4-1.41.29-1.97.71-.31.24-.55.92-.78,1.27h8.83ZM27.6,49.78c.03-.65-.85-1.47-1.42-1.63-.44-.13-1.01.08-1.34-.35-.29-.37-.13-.83-.24-1.23-.18-.61-1.01-1.36-1.62-1.53-.26-.07-1.7-.35-1.48.21.43.54,2.53,4.52,2.84,4.52h3.26ZM-8.55,49.78H-2.46c.07-.28-.08-.37-.17-.56-.33-.7-1.04-1.78-1.47-2.52-.15-.25-.44-1-.77-.91-.14.04-.21.42-.41.64-.85.89-1.87,1.72-2.75,2.62-.13.13-.77.52-.52.74h0ZM7,53.35c.22.21.59-.3.74-.42.81-.68,1.62-1.38,1.36-2.52-.3.12-1.58,1.21-1.68,1.41-.08.17-.48,1.48-.42,1.53ZM-1.83,51.25h-4.83v17.23h2.94v-15.23c0-.56,1.47-.27,1.47.21v15.02h.42s0-17.23,0-17.23ZM23.19,51.25h-4.83v17.23h2.94v-15.23c0-.42,1.26-.42,1.26,0v15.23h.63s0-17.23,0-17.23ZM6.58,57.13c.56-.53,2.88-2.48,2.94-3.05.03-.26-.11-.74-.32-.73-.24,0-3.2,2.97-2.63,3.78h0ZM9.73,56.29l-1.05.73c-.84,1.3-2.86,1.96-2.52,3.68l1.06-.72c.31-.73,2.6-2.36,2.63-2.94,0-.1-.09-.71-.11-.75h-.01ZM5.74,63.33v5.15h3.15v-2.94s.65-.18.7-.17c.91.17.45,2.4.56,3.12h.63v-5.57c-.27-.14-.05-1.18-.52-.94s-2.16,2.84-2.61,1.12c-.25-.97,3.37-2.6,2.4-4.06l-4.31,4.31v-.02Z"/>
        </g>
      </g>
    </g>
  </g>
  <path class="st1" d="M35.37,33.62"/>
  <g class="st4">
    <g id="vBIXMQ.tif3">
      <path class="st5" d="M49.26,69.96c.24-.24-.07-5.71,0-6.71.54-7.67,2.4-15.67,2.99-23.39.39-1.18-.03-3.65,1.8-2.5l.47,4.72c.8,7.06,2.44,14.56,2.94,21.63.14,2.03-.11,4.21,0,6.25h5.23v-18.65h-4.44c-.08,0-.47-.45-.52-.61-.34-1.13.55-2.8,1.47-3.44.43-.3,1.78-.69,1.85-.76.08-.07.23-.95.41-1.3.49-.95,1.65-1.89,2.72-2.06.86-.13,4.86-.14,5.62.05,1.18.29,2.21,1.51,2.62,2.62.08.21,0,.63.08.71s.5,0,.71.08c1.7.63,3.14,2.43,2.69,4.34-.03.13-.53.38-.58.38h-4.44v18.65c1.1.02,2.2-.02,3.3,0,.38,0,.75.24,1.14.24.59,0,1.08-.4,1.78-.19,1.03.31.45,1.55.05,1.55H29.58c-.9,0-.62-1.59-.23-1.59h6.26v-18.65c-1.13-.16-3.71.66-3.15-1.21l6.66-6.76c.31-.27.73-.26,1.12-.22l6.97,6.98c.43,1.88-2.24,1.03-3.41,1.21v18.65h5.46v-.02ZM68.83,49.72l-2.84-5.01c-1.73-.73-2.66.21-3.35,1.66-.18.37-.14.89-.39,1.2-.34.43-1.53.31-2.13.77-.34.26-.6.99-.85,1.37h9.56,0ZM74.29,49.72c.03-.71-.92-1.59-1.53-1.77-.48-.14-1.09.08-1.45-.37-.31-.4-.14-.89-.26-1.33-.19-.66-1.09-1.47-1.76-1.65-.28-.07-1.84-.38-1.6.23.47.58,2.73,4.89,3.07,4.89,0,0,3.53,0,3.53,0ZM35.15,49.72h6.6c.08-.31-.09-.4-.19-.61-.35-.75-1.13-1.92-1.6-2.73-.16-.28-.48-1.08-.83-.99-.15.04-.23.46-.44.69-.92.96-2.03,1.87-2.97,2.83-.14.15-.84.57-.57.8h0ZM51.99,53.58c.23.22.64-.32.8-.45.87-.73,1.76-1.49,1.48-2.73-.32.13-1.71,1.31-1.82,1.52-.09.18-.52,1.6-.45,1.66h0ZM42.44,51.31h-5.23v18.65h3.19v-16.49c0-.6,1.59-.29,1.59.23v16.26h.46v-18.65h0ZM69.51,51.31h-5.23v18.65h3.19v-16.49c0-.45,1.37-.45,1.37,0v16.49h.68v-18.65h-.01ZM51.54,57.68c.61-.58,3.12-2.68,3.19-3.3.03-.28-.12-.8-.34-.79-.26,0-3.47,3.21-2.84,4.09h0ZM54.95,56.77l-1.14.79c-.9,1.41-3.09,2.12-2.73,3.99l1.15-.78c.33-.79,2.81-2.55,2.84-3.19,0-.11-.1-.77-.12-.81ZM50.63,64.38v5.57h3.41v-3.18s.7-.2.76-.19c.99.18.49,2.59.6,3.37h.68v-6.03c-.29-.15-.05-1.28-.57-1.02s-2.34,3.07-2.82,1.21c-.27-1.05,3.65-2.81,2.59-4.39l-4.67,4.66h.02Z"/>
    </g>
  </g>
  <path class="st2" d="M90.64,78.26v-9.78H12.26v9.78h78.38Z"/>
</svg>