<?xml version="1.0" encoding="UTF-8"?>
<svg id="Layer_1" xmlns="http://www.w3.org/2000/svg" version="1.1" viewBox="0 0 106.63 106.63">
  <!-- Generator: Adobe Illustrator 29.6.0, SVG Export Plug-In . SVG Version: 2.1.1 Build 207)  -->
  <defs>
    <style>
      .st0 {
        fill: #e2e2e2;
      }

      .st1 {
        fill: #c5d417;
      }

      .st2 {
        fill: #606060;
      }

      .st3 {
        fill: #fff;
      }
    </style>
  </defs>
  <circle class="st2" cx="52.16" cy="54.17" r="42.53"/>
  <path class="st0" d="M35.37,33.62"/>
  <g id="_x31_P9ITp.tif">
    <g>
      <path class="st1" d="M39.9,38.71h-10.94v10.81l.13.13h10.81v-10.94ZM57.63,38.71h-10.94v10.81l.13.13h10.68l.13-.13v-10.81ZM75.37,38.71h-10.94v10.94h10.81l.13-.13v-10.81ZM57.58,70.89c-.12-.12-.19-.28-.21-.45-.15-1.24.27-3.39-.11-4.48-.35-1.02-1.69-.97-2.08,0-.12,1.31.09,2.75-.02,4.04-.1,1.14-.95,1.58-1.64.58l-.05-13.1c-.23-1.31-1.89-1.39-2.2-.1v15.89c0,.98-.95,1.42-1.59.61-1.04-1.32-1.74-3.76-2.79-5.07-.96-1.2-2.62-.19-2.18,1.21,1.83,3.65,3.21,12.42,8.27,12.82,2.61.2,5.48-.16,8.12,0,2.03-.19,3.63-1.75,3.91-3.76l-.03-11.16c-.27-.69-1.12-.95-1.73-.49-1.01.77.16,3.39-.94,3.64-.75.17-1.08-.21-1.16-.91-.11-.91.18-2.64-.05-3.39-.17-.55-.96-.73-1.47-.57-1.24.38-.45,3.45-.75,4.46-.14.48-.97.59-1.33.24Z"/>
      <path class="st1" d="M57.58,70.89c.36.36,1.19.24,1.33-.24.3-1.01-.49-4.08.75-4.46.5-.16,1.3.03,1.47.57.23.75-.06,2.48.05,3.39.08.7.41,1.09,1.16.91,1.1-.26-.06-2.87.94-3.64.61-.47,1.46-.2,1.73.49l.03,11.16c-.28,2.01-1.88,3.57-3.91,3.76-2.64-.16-5.51.2-8.12,0-5.07-.4-6.44-9.17-8.27-12.82-.44-1.41,1.22-2.42,2.18-1.21,1.05,1.3,1.74,3.75,2.79,5.07.64.81,1.6.37,1.59-.61v-15.89c.31-1.29,1.96-1.22,2.19.1l.05,13.1c.69,1,1.54.56,1.64-.58.11-1.3-.1-2.73.02-4.04.38-.97,1.72-1.02,2.08,0,.38,1.09-.04,3.24.11,4.48.02.17.09.33.21.45Z"/>
      <polygon class="st1" points="75.37 38.71 75.37 49.52 75.24 49.65 64.43 49.65 64.43 38.71 75.37 38.71"/>
      <polygon class="st1" points="57.63 38.71 57.63 49.52 57.5 49.65 46.83 49.65 46.69 49.52 46.69 38.71 57.63 38.71"/>
      <path class="st3" d="M39.9,38.71v10.94h-10.81l-.13-.13v-10.81h10.94ZM37.41,41.55c-.16.03-.38.19-.51.29-.46.35-2.66,2.87-2.87,2.87-.46-.32-1.82-1.92-2.23-2.01-.68-.15-1.16.49-.96,1.14.18.56,2.23,2.11,2.65,2.73.47.31.79.18,1.19-.13,1.2-.92,2.4-2.56,3.53-3.61.33-.59-.13-1.39-.82-1.27Z"/>
      <path class="st1" d="M37.41,41.55c.69-.11,1.15.68.82,1.27-1.13,1.06-2.34,2.69-3.53,3.61-.41.31-.73.44-1.19.13-.42-.62-2.47-2.17-2.65-2.73-.21-.64.28-1.29.96-1.14.41.09,1.76,1.69,2.23,2.01.2,0,2.41-2.52,2.87-2.87.13-.1.35-.26.51-.29Z"/>
    </g>
  </g>
</svg>