<?xml version="1.0" encoding="UTF-8"?>
<svg id="Layer_1" xmlns="http://www.w3.org/2000/svg" version="1.1" viewBox="0 0 106.63 106.63">
  <!-- Generator: Adobe Illustrator 29.6.0, SVG Export Plug-In . SVG Version: 2.1.1 Build 207)  -->
  <defs>
    <style>
      .st0 {
        fill: #e2e2e2;
      }

      .st1 {
        fill: none;
        stroke: #c5d417;
        stroke-miterlimit: 10;
        stroke-width: 1.7px;
      }

      .st2 {
        fill: #c5d417;
      }

      .st3 {
        fill: #606060;
      }

      .st4 {
        fill: #fff;
      }
    </style>
  </defs>
  <circle class="st3" cx="52.16" cy="54.17" r="42.53"/>
  <path class="st0" d="M35.37,33.62"/>
  <g id="IE56RQ.tif">
    <g>
      <path class="st2" d="M48.45,79.78c-1.17-.24-2.56-1.8-2.74-2.99v-22.71c-.05-.63-.76-.53-1.19-.81-1-.66-1.86-1.26-2.08-2.55-.27-1.62-.31-10.28,0-11.81.23-1.14,1.52-2.61,2.72-2.79,5.81.15,11.64-.18,17.44-.15,1.61,0,6.69-.12,7.85.19,1.04.28,2.41,1.88,2.58,2.94.24,1.54.26,10.19-.04,11.63-.1.48-.89,1.71-1.26,2.04-.7.63-1.71.55-2,1.31v22.71c-.07,1.12-1.94,2.99-2.97,2.99h-3.42l-.22,3.31h-4.85c-.55,10.87-15.57,13.69-20,3.58-2.23-5.08-.44-18.35-.93-24.65-.28-3.58-2.78-6.82-6.23-7.88-.8-.24-2.87-.35-3.17-.58-.85-.65-.17-1.06.67-1.13,4.68-.39,9.63,4.35,10.05,8.93.59,6.34-1.42,20.52,1.19,25.49,1.58,3,5.78,5.35,9.16,4.62v.89h.66l.03-.85c3.86-1.09,7.18-4.23,7.25-8.41h-4.63l-.22-3.31c-1.08-.15-2.64.2-3.64,0h0ZM46.75,52.48c.23.19.26.84.28,1.15.53,7.23-.67,15.37-.02,22.52.11,1.23.87,2.14,2.1,2.31,5.47-.39,11.6.5,16.99,0,1.41-.13,2.05-.96,2.31-2.32v-23.16c.15-.87,1.17-.65,1.76-.88.94-.36,1.43-1.25,1.54-2.21.26-2.29.23-7.61,0-9.93-.14-1.5-.77-2.4-2.31-2.54-7.41-.69-15.87.54-23.39,0-1.32.04-2.15.79-2.31,2.1-.25,2.11-.27,8.73.02,10.8s2.31,1.57,3.02,2.16h0ZM53.41,81.77h8.27c.51-.44.51-1.54,0-1.98h-8.27v1.98Z"/>
      <path class="st2" d="M69.73,39.42v10.7l-.33.33h-23.37l-.33-.33v-10.7h24.03ZM68.41,40.52h-21.39v8.6h21.39v-8.6Z"/>
      <path class="st2" d="M55.73,65.45h3.97l.33.33v3.75c-.56.87-4.63.76-4.63,0v-3.75s.33-.33.33-.33ZM56.72,68.75l1.89-.21c.15-.4.24-1.44-.11-1.68l-1.78-.1v1.99Z"/>
      <path class="st2" d="M59.81,63.46h-4.08l-.33-.33v-4.08c.84-.22,3.75-.47,4.32-.02s.32,3.61.09,4.43ZM58.71,62.14c-.06-.48.18-1.62-.21-1.89l-1.78-.1v1.99s1.99,0,1.99,0Z"/>
      <path class="st2" d="M49.33,58.83h3.75l.33.33v3.97l-.33.33h-3.75c-.87,0-.73-4.63,0-4.63ZM52.09,60.15c-.48.06-1.62-.18-1.89.21l-.1,1.78h1.99s0-1.99,0-1.99Z"/>
      <path class="st2" d="M55.4,72.39c.23-.75,4.06-.87,4.63,0v3.75l-.33.33h-3.97l-.33-.33s0-3.75,0-3.75ZM58.71,75.15c-.06-.48.18-1.62-.21-1.89l-1.78-.1v1.99s1.99,0,1.99,0Z"/>
      <path class="st2" d="M55.4,52.76l.37-.29c1.44-.11,3-.58,4.26.29v3.75l-.33.33h-3.97l-.33-.33s0-3.75,0-3.75ZM58.71,53.75h-1.99v1.77h1.99v-1.77Z"/>
      <path class="st2" d="M53.41,69.86c-.18.28-3.8.4-4.36-.05-.43-.43-.54-3.82.28-4.36h3.75l.33.33v4.08ZM52.09,66.77l-1.89.21c-.5,1.62.28,2.25,1.79,1.57l.1-1.78Z"/>
      <path class="st2" d="M49,76.47c-.28-.18-.4-3.8.05-4.36.43-.43,3.82-.54,4.36.28v3.75l-.33.33h-4.08ZM52.09,75.15l-.21-1.89c-.4-.15-1.44-.24-1.68.11l-.1,1.78s1.99,0,1.99,0Z"/>
      <path class="st2" d="M62.34,58.83h3.75l.33.33v3.97l-.33.33h-3.75l-.33-.33v-3.97s.33-.33.33-.33ZM65.1,60.15h-1.77v1.99h1.77v-1.99Z"/>
      <path class="st2" d="M49,56.84c-.28-.18-.4-3.81.05-4.36.63-.07,4.36-.34,4.36.28v3.75l-.33.33h-4.08ZM52.09,53.75h-1.99v1.77h1.99v-1.77Z"/>
      <path class="st2" d="M66.42,72.06v4.41h-4.41v-4.41c.22.07.48-.22.55-.22h3.31c.07,0,.33.29.55.22ZM65.1,73.16h-1.77v1.99h1.77v-1.99Z"/>
      <path class="st2" d="M66.42,69.86c-1.41.35-3,.35-4.41,0v-4.08l.33-.33h3.75l.33.33v4.08ZM65.1,66.77h-1.77v1.99h1.77v-1.99Z"/>
      <path class="st2" d="M66.42,52.43v4.41h-4.41v-4.41c1.53.1,2.9-.31,4.41,0ZM65.1,53.75h-1.77v1.77h1.77v-1.77Z"/>
    </g>
  </g>
  <path class="st4" d="M45.7,50.45h24.03v-11.03h-24.03s0,11.03,0,11.03Z"/>
  <path class="st1" d="M30.34,53.32s-3.55-1.34-7.76,0-4.95,2.09-6.11,4.15,0,18.78,0,21.16"/>
</svg>