<?xml version="1.0" encoding="UTF-8"?>
<svg id="Layer_1" xmlns="http://www.w3.org/2000/svg" version="1.1" viewBox="0 0 106.63 106.63">
  <!-- Generator: Adobe Illustrator 29.6.0, SVG Export Plug-In . SVG Version: 2.1.1 Build 207)  -->
  <defs>
    <style>
      .st0 {
        fill: #96a500;
      }

      .st1 {
        fill: #e2e2e2;
      }

      .st2 {
        fill: #c5d417;
      }

      .st3 {
        fill: #606060;
      }

      .st4 {
        fill: #fff;
      }
    </style>
  </defs>
  <circle class="st3" cx="52.16" cy="54.17" r="42.53"/>
  <g>
    <g>
      <path class="st0" d="M30.78,73.35h7.93v-36.41h-7.93s0,36.41,0,36.41Z"/>
      <path class="st2" d="M30.79,38.87v32.62h7.91v-32.62h-7.91Z"/>
    </g>
    <path class="st0" d="M31.59,70.15v5.77h6.29v-5.77h-6.29Z"/>
    <path class="st0" d="M138.12,29.53v5.77h6.29v-5.77s-6.29,0-6.29,0Z"/>
    <g>
      <rect class="st1" x="27.32" y="44.42" width="14.83" height="29.76"/>
      <g>
        <path class="st0" d="M52.58,51.24v5.77h6.29v-5.77h-6.29Z"/>
        <g>
          <path class="st0" d="M59.74,18.55h-8.02v27h8.02v-27Z"/>
          <path class="st2" d="M59.73,44.12v-24.18h-8.01v24.18s8.01,0,8.01,0Z"/>
        </g>
        <rect class="st4" x="47.78" y="29.59" width="15.89" height="19.48"/>
        <rect class="st4" x="50.24" y="38" width="10.98" height="17.27"/>
      </g>
    </g>
    <g id="_x34_xbVTa.tif">
      <path class="st1" d="M80.15,83.97l-7.2-1.42c-.08-.11.29-.95.35-1.14,2.44-8.18-4.74-15.33-12.88-14.24-7.69,1.03-12.67,8.63-11.28,16.12l-.06.12-2.55.56c-.17-.95-.39-1.91-.47-2.87-1.05-12.05,10-21.42,21.74-18.42,6.02,1.54,10.86,6.37,12.42,12.39.76,2.96.67,5.94-.06,8.9h-.01ZM78.96,81.84c.44-3.64-.15-7.44-2.16-10.53l-2.39,1.63c.85,1.98,1.29,3.99,1.11,6.15-.06.71-.2,1.41-.35,2.1l3.79.65Z"/>
      <path class="st4" d="M69.84,75.57c.11.16-.27.48-.38.59-1.37,1.31-2.8,2.57-4.18,3.87-.95.9-3.35,3.59-4.44,3.85-2.76.67-4.59-2.89-2.37-4.68.4-.32.79-.42,1.26-.58,2.91-.99,6.05-1.99,9-2.84.18-.05,1.01-.35,1.11-.22h0Z"/>
    </g>
  </g>
</svg>