<?xml version="1.0" encoding="UTF-8"?>
<svg id="Layer_1" xmlns="http://www.w3.org/2000/svg" version="1.1" viewBox="0 0 106.63 106.63">
  <!-- Generator: Adobe Illustrator 29.6.0, SVG Export Plug-In . SVG Version: 2.1.1 Build 207)  -->
  <defs>
    <style>
      .st0 {
        fill: #96a500;
      }

      .st1 {
        fill: #606060;
      }

      .st2 {
        fill: #fff;
      }
    </style>
  </defs>
  <circle class="st1" cx="50.77" cy="53.31" r="42.53"/>
  <g>
    <rect class="st2" x="31.22" y="33.7" width="1.48" height="1.93"/>
    <g>
      <polygon class="st2" points="31.22 65.69 32.62 65.69 32.62 64.73 34.42 64.73 34.42 68.64 32.62 68.64 32.62 67.68 31.22 67.68 31.22 72.93 36.16 72.93 36.16 60.44 31.22 60.44 31.22 65.69"/>
      <polygon class="st2" points="31.22 57.06 32.62 57.06 32.62 56.1 34.42 56.1 34.42 60.02 32.62 60.02 32.62 59.05 31.22 59.05 31.22 64.31 36.16 64.31 36.16 51.81 31.22 51.81 31.22 57.06"/>
      <polygon class="st2" points="31.22 48.65 32.62 48.65 32.62 47.69 34.42 47.69 34.42 51.6 32.62 51.6 32.62 50.64 31.22 50.64 31.22 55.89 36.16 55.89 36.16 43.4 31.22 43.4 31.22 48.65"/>
      <polygon class="st2" points="31.22 40.02 32.62 40.02 32.62 39.06 34.42 39.06 34.42 42.98 32.62 42.98 32.62 42.01 31.22 42.01 31.22 47.27 36.16 47.27 36.16 34.77 31.22 34.77 31.22 40.02"/>
      <polygon class="st2" points="39.4 33.7 39.4 35.09 40.36 35.09 40.36 36.9 36.44 36.9 36.44 35.09 37.41 35.09 37.41 33.7 32.15 33.7 32.15 38.64 44.65 38.64 44.65 33.7 39.4 33.7"/>
      <polygon class="st2" points="48.02 33.7 48.02 35.09 48.99 35.09 48.99 36.9 45.07 36.9 45.07 35.09 46.03 35.09 46.03 33.7 40.78 33.7 40.78 38.64 53.28 38.64 53.28 33.7 48.02 33.7"/>
      <polygon class="st2" points="56.44 33.7 56.44 35.09 57.4 35.09 57.4 36.9 53.48 36.9 53.48 35.09 54.45 35.09 54.45 33.7 49.19 33.7 49.19 38.64 61.69 38.64 61.69 33.7 56.44 33.7"/>
      <polygon class="st2" points="65.06 33.7 65.06 35.09 66.03 35.09 66.03 36.9 62.11 36.9 62.11 35.09 63.07 35.09 63.07 33.7 57.82 33.7 57.82 38.64 70.32 38.64 70.32 33.7 65.06 33.7"/>
      <rect class="st0" x="36.16" y="38.64" width="34.15" height="34.15"/>
    </g>
  </g>
</svg>