<svg width="59" height="68" viewBox="0 0 59 68" fill="none" xmlns="http://www.w3.org/2000/svg">
<g clip-path="url(#clip0_2791_883)">
<path d="M69 0V68H11V0H69ZM45.3395 15.9642C44.6439 15.2269 45.4963 12.0364 43.2214 11.6747C42.6551 11.5837 40.8739 11.5817 40.3351 11.7043C38.3011 12.1688 39.1692 15.0213 38.4305 15.9108C38.2855 16.0867 36.8198 16.9783 36.5749 16.9822C35.5246 16.996 34.2843 15.8594 32.9342 16.2983C31.8016 16.6659 30.6259 19.3187 30.8003 20.4474C31.0335 21.9517 33.5416 22.3451 33.7278 23.4343C33.9786 24.8912 31.3392 25.4585 31.0276 26.8264C30.7709 27.9531 31.9133 30.5684 32.9538 30.9262C34.6252 31.4994 35.5814 30.1671 36.7532 30.2481C36.955 30.262 38.1522 30.9163 38.3109 31.0566C39.0947 31.7505 38.5833 34.0573 39.7316 34.9607C40.4664 35.5379 42.9901 35.5715 43.7935 35.1603C45.1945 34.4428 44.7439 32.3731 45.2847 31.1298L47.3421 29.9259C49.0919 30.426 50.9083 31.5014 52.1173 29.5247C52.2525 29.3052 52.8364 27.9571 52.8854 27.7298C53.4791 24.905 50.2578 24.9623 50.1676 23.4244C50.0912 22.1297 52.47 21.5722 52.8423 20.3723C53.2753 18.9708 51.7587 16.2054 50.393 15.895C49.0272 15.5847 48.1102 16.7509 47.1305 16.8043C46.9522 16.8142 45.4297 16.061 45.3356 15.9622L45.3395 15.9642ZM19.7705 34.8421C16.8705 35.2394 14.627 37.8764 14.7132 40.8257C14.7759 42.9823 15.7419 44.2356 17.1684 45.6667C21.7045 50.2231 29.0231 57.4304 34.7741 59.929C43.6466 63.7836 53.6124 61.7673 63.0295 62.2714C65.4416 61.9808 65.5239 58.8081 63.2078 58.3258C51.6294 57.796 38.8204 60.8343 29.6129 51.8915C26.6933 48.4619 22.0945 45.5244 19.2278 42.2055C17.6151 40.3394 19.604 37.8171 21.7202 39.098L34.3313 50.6897C34.8701 50.9783 35.4776 51.3598 36.0693 51.506C38.0699 51.9983 45.1926 52.0477 47.297 51.7373C50.2441 51.3024 50.1774 48.025 47.1305 47.6593C43.8954 47.2719 40.143 47.9756 36.8551 47.5486C35.311 46.8291 35.311 44.6883 36.8551 43.9707L57.4901 43.9292C59.1655 44.2119 60.7311 46.0838 60.9486 47.7542C61.1543 49.3336 60.3196 52.5122 63.0178 52.3976C66.0589 52.2691 64.8675 46.3072 63.9759 44.5005C62.3339 41.1716 59.3026 39.9381 55.7795 39.7227C50.7653 39.4143 43.1175 39.357 38.1385 39.7326C35.5324 39.9302 33.5808 40.7783 32.362 43.1958L32.074 43.2788L24.1911 36.0064C22.8567 35.0437 21.4224 34.6108 19.7686 34.8381L19.7705 34.8421Z" fill="white"/>
<path d="M19.7705 34.8421C21.4243 34.6148 22.8587 35.0477 24.193 36.0104L32.076 43.2828L32.364 43.1998C33.5828 40.7802 35.5344 39.9322 38.1405 39.7365C43.1195 39.359 50.7672 39.4183 55.7815 39.7266C59.3046 39.9421 62.3359 41.1756 63.9779 44.5044C64.8695 46.3112 66.0608 52.2711 63.0197 52.4015C60.3216 52.5162 61.1543 49.3376 60.9505 47.7581C60.733 46.0878 59.1674 44.2158 57.4921 43.9331L36.857 43.9747C35.313 44.6942 35.313 46.835 36.857 47.5526C40.145 47.9776 43.8974 47.2758 47.1324 47.6633C50.1794 48.027 50.246 51.3064 47.299 51.7413C45.1945 52.0516 38.0719 52.0022 36.0713 51.51C35.4776 51.3637 34.8721 50.9822 34.3333 50.6936L21.7222 39.102C19.606 37.8211 17.6171 40.3414 19.2297 42.2094C22.0964 45.5284 26.6953 48.4658 29.6149 51.8955C38.8224 60.8383 51.6314 57.8 63.2098 58.3298C65.5259 58.8101 65.4436 61.9848 63.0315 62.2754C53.6163 61.7713 43.6485 63.7876 34.7761 59.9329C29.0251 57.4343 21.7065 50.2271 17.1703 45.6707C15.7439 44.2395 14.7778 42.9843 14.7151 40.8297C14.6289 37.8784 16.8725 35.2434 19.7725 34.8461L19.7705 34.8421Z" fill="#BCD000"/>
<path d="M45.3395 15.9642C45.4316 16.063 46.9541 16.8162 47.1344 16.8063C48.1141 16.751 49.0273 15.5847 50.3969 15.897C51.7666 16.2093 53.2793 18.9728 52.8462 20.3743C52.4739 21.5742 50.0952 22.1317 50.1716 23.4264C50.2617 24.9643 53.4831 24.907 52.8893 27.7318C52.8423 27.9571 52.2564 29.3053 52.1212 29.5267C50.9123 31.5034 49.0958 30.428 47.346 29.9279L45.2886 31.1318C44.7478 32.3771 45.1985 34.4448 43.7975 35.1624C42.9941 35.5735 40.4703 35.5419 39.7355 34.9627C38.5872 34.0593 39.1006 31.7525 38.3149 31.0586C38.1562 30.9183 36.9589 30.264 36.7571 30.2501C35.5854 30.1691 34.6291 31.5014 32.9577 30.9282C31.9153 30.5704 30.7729 27.9551 31.0316 26.8284C31.3431 25.4605 33.9825 24.8932 33.7317 23.4363C33.5436 22.3471 31.0355 21.9557 30.8043 20.4494C30.6299 19.3207 31.8056 16.6679 32.9381 16.3003C34.2882 15.8614 35.5285 16.998 36.5788 16.9842C36.8218 16.9803 38.2875 16.0887 38.4344 15.9128C39.1731 15.0233 38.3051 12.1708 40.339 11.7063C40.8779 11.5837 42.661 11.5857 43.2253 11.6767C45.4983 12.0384 44.6459 15.2289 45.3435 15.9662L45.3395 15.9642ZM40.9288 19.2219C35.9322 20.0936 36.6983 28.8724 42.7942 27.8247C48.1259 26.9094 47.056 18.1525 40.9288 19.2219Z" fill="#6B6B6B"/>
<path d="M40.9288 19.2218C47.056 18.1524 48.1259 26.9094 42.7942 27.8246C36.6983 28.8723 35.9302 20.0936 40.9288 19.2218Z" fill="white"/>
</g>
<defs>
<clipPath id="clip0_2791_883">
<rect width="59" height="68" fill="white"/>
</clipPath>
</defs>
</svg>
