<?xml version="1.0" encoding="UTF-8"?>
<svg id="Layer_1" xmlns="http://www.w3.org/2000/svg" xmlns:xlink="http://www.w3.org/1999/xlink" version="1.1" viewBox="0 0 184 185">
  <!-- Generator: Adobe Illustrator 29.6.0, SVG Export Plug-In . SVG Version: 2.1.1 Build 207)  -->
  <defs>
    <style>
      .st0 {
        mask: url(#mask);
      }

      .st1 {
        fill: #595959;
      }

      .st2 {
        stroke: #a2a3a2;
        stroke-width: 1.81px;
      }

      .st2, .st3 {
        fill: none;
        stroke-miterlimit: 10;
      }

      .st4, .st5 {
        fill: #c5d417;
      }

      .st3 {
        stroke: #fff;
        stroke-width: .48px;
      }

      .st6 {
        fill: #fff;
      }

      .st7 {
        fill: #6b6b6b;
      }

      .st5 {
        stroke: #96a500;
      }
    </style>
    <mask id="mask" x="77.56" y="91.07" width="74.08" height="53.9" maskUnits="userSpaceOnUse">
      <g id="mask0_0_1">
        <g id="clippath">
          <path id="Vector" class="st6" d="M147.2,91.07h-65.22c-2.45,0-4.43,1.98-4.43,4.43v35.72c0,2.45,1.98,4.43,4.43,4.43h65.22c2.45,0,4.43-1.98,4.43-4.43v-35.72c0-2.45-1.98-4.43-4.43-4.43Z"/>
        </g>
      </g>
    </mask>
  </defs>
  <g id="Desktop">
    <g id="Frame_180">
      <g id="ikony">
        <g id="ikona_01">
          <g id="Group">
            <g id="Clip_path_group">
              <g class="st0">
                <g id="Group_2">
                  <path id="Vector_2" class="st7" d="M151.63,144.97v-15.77h-73.46v15.77h73.46Z"/>
                </g>
              </g>
            </g>
            <path id="Vector_3" class="st2" d="M57.26,84.48v69.41h.07v25.17h11.37l9.82-8.1v-17.07h72.02v17.35l10.28,7.82h10.92v-94.58H57.26ZM151.63,131.22c0,2.45-1.99,4.43-4.43,4.43h-65.22c-2.45,0-4.43-1.98-4.43-4.43v-35.72c0-2.45,1.98-4.43,4.43-4.43h65.22c2.45,0,4.43,1.99,4.43,4.43v35.72Z"/>
            <path id="Vector_4" class="st7" d="M130.07,74.37h-31.14v25.52h31.14v-25.52Z"/>
            <path id="Vector_5" class="st2" d="M45.02,83.76h-26.13c-3.65,0-6.62,2.96-6.62,6.62v82.41c0,3.65,2.96,6.62,6.62,6.62h26.13c3.65,0,6.62-2.96,6.62-6.62v-82.41c0-3.65-2.96-6.62-6.62-6.62Z"/>
            <path id="Vector_6" class="st7" d="M116.31,107.73h-3.57v13.58h3.57v-13.58Z"/>
            <path id="Vector_7" class="st1" d="M106.77,74.26h-3.22v25.58h3.22v-25.58Z"/>
            <path id="Vector_8" class="st1" d="M116.17,109.18h-3.22v3.63h3.22v-3.63Z"/>
            <path id="Vector_9" class="st1" d="M123.38,74.26h-.89v25.58h.89v-25.58Z"/>
            <path id="Vector_10" class="st1" d="M99.1,83.66h-3.16v8.09h3.16v-8.09Z"/>
            <path id="Vector_11" class="st5" d="M15.73,131.46v-36.07c0-2.1,1.7-3.79,3.79-3.79h24.67c2.09,0,3.79,1.7,3.79,3.79v36.07c0,2.1-1.7,3.79-3.79,3.79h-24.67c-2.1,0-3.79-1.7-3.79-3.79Z"/>
            <path id="Vector_12" class="st2" d="M150.53,153.9h21.19H57.32"/>
            <g id="Vector_13">
              <path class="st6" d="M116.14,115.1l3.33.11-3.53.99,3.9.62-3.9.62,3.77.76-3.77.41,3.08.68-3.08.41,3.08.62-3.16.35,3.37.62-3.37.34.27.48"/>
              <path class="st3" d="M116.14,115.1l3.33.11-3.53.99,3.9.62-3.9.62,3.77.76-3.77.41,3.08.68-3.08.41,3.08.62-3.16.35,3.37.62-3.37.34.27.48"/>
            </g>
            <path id="Vector_14" class="st4" d="M121.8,71.25h-15.77v37.86h15.77v-37.86Z"/>
          </g>
        </g>
      </g>
    </g>
  </g>
</svg>