<?xml version="1.0" encoding="UTF-8"?>
<svg id="Layer_1" xmlns="http://www.w3.org/2000/svg" version="1.1" viewBox="0 0 59 68">
  <!-- Generator: Adobe Illustrator 29.6.0, SVG Export Plug-In . SVG Version: 2.1.1 Build 207)  -->
  <defs>
    <style>
      .st0 {
        fill: #bcd000;
      }

      .st1 {
        fill: #6b6b6b;
      }
    </style>
  </defs>
  <path class="st0" d="M13.58,34.84c1.65-.23,3.09.21,4.42,1.17l7.88,7.27.29-.08c1.22-2.42,3.17-3.27,5.78-3.46,4.98-.38,12.63-.32,17.64,0,3.52.22,6.55,1.45,8.2,4.78.89,1.81,2.08,7.77-.96,7.9-2.7.11-1.87-3.06-2.07-4.64-.22-1.67-1.78-3.54-3.46-3.82l-20.64.04c-1.54.72-1.54,2.86,0,3.58,3.29.42,7.04-.28,10.28.11,3.05.36,3.11,3.64.17,4.08-2.1.31-9.23.26-11.23-.23-.59-.15-1.2-.53-1.74-.82l-12.61-11.59c-2.12-1.28-4.11,1.24-2.49,3.11,2.87,3.32,7.47,6.26,10.39,9.69,9.21,8.94,22.02,5.9,33.59,6.43,2.32.48,2.23,3.65-.18,3.95-9.42-.5-19.38,1.51-28.26-2.34-5.75-2.5-13.07-9.71-17.61-14.26-1.43-1.43-2.39-2.69-2.46-4.84-.09-2.95,2.16-5.59,5.06-5.98h0Z"/>
  <path class="st1" d="M39.15,15.96c.09.1,1.61.85,1.79.84.98-.06,1.89-1.22,3.26-.91,1.37.31,2.88,3.08,2.45,4.48-.37,1.2-2.75,1.76-2.67,3.05.09,1.54,3.31,1.48,2.72,4.31-.05.23-.63,1.57-.77,1.79-1.21,1.98-3.03.9-4.78.4l-2.06,1.2c-.54,1.25-.09,3.31-1.49,4.03-.8.41-3.33.38-4.06-.2-1.15-.9-.63-3.21-1.42-3.9-.16-.14-1.36-.79-1.56-.81-1.17-.08-2.13,1.25-3.8.68-1.04-.36-2.18-2.97-1.93-4.1.31-1.37,2.95-1.94,2.7-3.39-.19-1.09-2.7-1.48-2.93-2.99-.17-1.13,1-3.78,2.13-4.15,1.35-.44,2.59.7,3.64.68.24,0,1.71-.9,1.86-1.07.74-.89-.13-3.74,1.9-4.21.54-.12,2.32-.12,2.89-.03,2.27.36,1.42,3.55,2.12,4.29h0ZM34.74,19.22c-5,.87-4.23,9.65,1.87,8.6,5.33-.92,4.26-9.67-1.87-8.6Z"/>
</svg>