<svg width="1671" height="604" viewBox="0 0 1671 604" fill="none" xmlns="http://www.w3.org/2000/svg" xmlns:xlink="http://www.w3.org/1999/xlink">
<path d="M114.146 216.731L216.857 319.442L102.711 433.588L-1.4082e-05 330.877L114.146 216.731Z" fill="url(#pattern0_2863_469)" fill-opacity="0.29"/>
<path d="M1518.15 4.58912e-06L1670.19 152.042L1556.04 266.187L1404 114.146L1518.15 4.58912e-06Z" fill="url(#pattern1_2863_469)" fill-opacity="0.29"/>
<rect x="108" y="540" width="1465" height="64" fill="url(#pattern2_2863_469)" fill-opacity="0.44"/>
<defs>
<pattern id="pattern0_2863_469" patternUnits="userSpaceOnUse" viewBox="-1086.76 866.885 281.234 174.421" width="48.403371887837579%" height="27.012540846632859%" x="39.8033" patternContentUnits="objectBoundingBox">
<g id="pattern0_2863_469_inner">
<g clip-path="url(#clip0_2863_469)">
<path d="M-1030.1 704.374L-1033.72 699.22L-1219.4 829.8L-1215.78 834.953L-1030.1 704.374Z" fill="white"/>
<path d="M-1013.8 727.555L-1017.42 722.402L-1203.1 852.982L-1199.48 858.135L-1013.8 727.555Z" fill="white"/>
<path d="M-997.499 750.729L-1001.12 745.575L-1186.81 876.155L-1183.18 881.309L-997.499 750.729Z" fill="white"/>
<path d="M-981.197 773.91L-984.821 768.757L-1170.5 899.337L-1166.88 904.49L-981.197 773.91Z" fill="white"/>
<path d="M-964.894 797.092L-968.518 791.939L-1154.2 922.519L-1150.58 927.672L-964.894 797.092Z" fill="white"/>
<path d="M-948.592 820.274L-952.216 815.12L-1137.9 945.7L-1134.27 950.854L-948.592 820.274Z" fill="white"/>
<path d="M-932.295 843.447L-935.919 838.294L-1121.6 968.874L-1117.98 974.027L-932.295 843.447Z" fill="white"/>
<path d="M-915.993 866.629L-919.617 861.476L-1105.3 992.055L-1101.68 997.209L-915.993 866.629Z" fill="white"/>
</g>
</g>
<use xlink:href="#pattern0_2863_469_inner" transform="translate(0 131.297)"/>
<use xlink:href="#pattern0_2863_469_inner" transform="translate(131.297 65.6486)"/>
<use xlink:href="#pattern0_2863_469_inner" transform="translate(131.297 196.946)"/>
<use xlink:href="#pattern0_2863_469_inner" transform="translate(262.594 0)"/>
<use xlink:href="#pattern0_2863_469_inner" transform="translate(262.594 131.297)"/>
<use xlink:href="#pattern0_2863_469_inner" transform="translate(393.892 0)"/>
<use xlink:href="#pattern0_2863_469_inner" transform="translate(393.892 131.297)"/>
</pattern><pattern id="pattern1_2863_469" patternUnits="userSpaceOnUse" viewBox="-1086.76 866.885 281.234 174.421" width="32.698662583979946%" height="27.012540846632859%" x="74.6853" patternContentUnits="objectBoundingBox">
<g id="pattern1_2863_469_inner">
<g clip-path="url(#clip1_2863_469)">
<path d="M-1030.1 704.374L-1033.72 699.22L-1219.4 829.8L-1215.78 834.953L-1030.1 704.374Z" fill="white"/>
<path d="M-1013.8 727.555L-1017.42 722.402L-1203.1 852.982L-1199.48 858.135L-1013.8 727.555Z" fill="white"/>
<path d="M-997.499 750.729L-1001.12 745.575L-1186.81 876.155L-1183.18 881.309L-997.499 750.729Z" fill="white"/>
<path d="M-981.197 773.91L-984.821 768.757L-1170.5 899.337L-1166.88 904.49L-981.197 773.91Z" fill="white"/>
<path d="M-964.894 797.092L-968.518 791.939L-1154.2 922.519L-1150.58 927.672L-964.894 797.092Z" fill="white"/>
<path d="M-948.592 820.274L-952.216 815.12L-1137.9 945.7L-1134.27 950.854L-948.592 820.274Z" fill="white"/>
<path d="M-932.295 843.447L-935.919 838.294L-1121.6 968.874L-1117.98 974.027L-932.295 843.447Z" fill="white"/>
<path d="M-915.993 866.629L-919.617 861.476L-1105.3 992.055L-1101.68 997.209L-915.993 866.629Z" fill="white"/>
</g>
</g>
<use xlink:href="#pattern1_2863_469_inner" transform="translate(0 131.297)"/>
<use xlink:href="#pattern1_2863_469_inner" transform="translate(131.297 65.6486)"/>
<use xlink:href="#pattern1_2863_469_inner" transform="translate(131.297 196.946)"/>
<use xlink:href="#pattern1_2863_469_inner" transform="translate(262.594 0)"/>
<use xlink:href="#pattern1_2863_469_inner" transform="translate(262.594 131.297)"/>
<use xlink:href="#pattern1_2863_469_inner" transform="translate(393.892 0)"/>
<use xlink:href="#pattern1_2863_469_inner" transform="translate(393.892 131.297)"/>
</pattern><pattern id="pattern2_2863_469" patternUnits="userSpaceOnUse" viewBox="-1086.76 866.885 151.885 151.885" width="2.5918951255958187%" height="59.330099359341837%" x="699.676" patternContentUnits="objectBoundingBox">
<g id="pattern2_2863_469_inner">
<g clip-path="url(#clip2_2863_469)">
<path d="M-1030.1 704.374L-1033.72 699.22L-1219.4 829.8L-1215.78 834.953L-1030.1 704.374Z" fill="white"/>
<path d="M-1013.8 727.555L-1017.42 722.402L-1203.1 852.982L-1199.48 858.135L-1013.8 727.555Z" fill="white"/>
<path d="M-997.499 750.729L-1001.12 745.575L-1186.81 876.155L-1183.18 881.309L-997.499 750.729Z" fill="white"/>
<path d="M-981.197 773.91L-984.821 768.757L-1170.5 899.337L-1166.88 904.49L-981.197 773.91Z" fill="white"/>
<path d="M-964.894 797.092L-968.518 791.939L-1154.2 922.519L-1150.58 927.672L-964.894 797.092Z" fill="white"/>
<path d="M-948.592 820.274L-952.216 815.12L-1137.9 945.7L-1134.27 950.854L-948.592 820.274Z" fill="white"/>
<path d="M-932.295 843.447L-935.919 838.294L-1121.6 968.874L-1117.98 974.027L-932.295 843.447Z" fill="white"/>
<path d="M-915.993 866.629L-919.617 861.476L-1105.3 992.055L-1101.68 997.209L-915.993 866.629Z" fill="white"/>
</g>
</g>
<use xlink:href="#pattern2_2863_469_inner" transform="translate(131.297 0)"/>
<use xlink:href="#pattern2_2863_469_inner" transform="translate(0 131.297)"/>
<use xlink:href="#pattern2_2863_469_inner" transform="translate(131.297 131.297)"/>
</pattern><clipPath id="clip0_2863_469">
<rect width="227" height="227" fill="white" transform="translate(-1171.04 715) rotate(9.88345)"/>
</clipPath>
<clipPath id="clip1_2863_469">
<rect width="227" height="227" fill="white" transform="translate(-1171.04 715) rotate(9.88345)"/>
</clipPath>
<clipPath id="clip2_2863_469">
<rect width="227" height="227" fill="white" transform="translate(-1171.04 715) rotate(9.88345)"/>
</clipPath>
</defs>
</svg>
