<svg width="28" height="25" viewBox="0 0 28 25" fill="none" xmlns="http://www.w3.org/2000/svg">
<g clip-path="url(#clip0_2814_1402)">
<path d="M4.89217 0.247022C5.38897 0.214858 5.97657 0.131853 6.18384 0.69421L8.01076 6.80544C8.34089 8.72181 4.90393 8.7602 5.2832 10.7004C5.59516 12.2962 10.8484 18.4313 12.4221 19.0186C13.9328 19.5819 15.0172 16.9009 16.2811 16.9289C16.499 16.9341 16.8131 17.0648 17.0268 17.1416C18.9274 17.8316 20.8558 19.2115 22.7511 19.9866C23.4242 20.5894 22.3772 22.6012 21.8986 23.1958C19.3334 26.3863 14.14 24.695 11.108 23.0972C5.89538 20.3466 0.875079 13.9252 0.119737 8.13974C-0.350349 4.53837 0.432771 0.536501 4.89217 0.247022Z" fill="white"/>
<path d="M27.3119 10.4515C26.9871 10.7918 26.3824 11.0616 25.9048 11.1083C23.8845 11.3064 21.5736 10.9423 19.5213 11.1342C18.3076 11.6675 15.8877 14.0726 14.6901 14.1245C12.8674 14.2043 13.7531 12.2091 13.5619 11.1135C12.4967 11.0823 11.674 10.2948 11.548 9.28217C11.3471 7.6532 11.377 3.79555 11.5319 2.13027C11.642 0.951601 12.4283 0.25021 13.6206 0.112215C17.5063 0.36953 21.8674 -0.23433 25.6965 0.107027C27.049 0.227384 27.7723 1.05121 27.8856 2.33882C28.0362 4.03627 28.0373 7.28798 27.8802 8.98127C27.8354 9.45959 27.6516 10.0946 27.3108 10.4515H27.3119ZM15.9988 4.69719C14.5693 4.89744 14.9005 7.01302 16.2809 6.85324C17.7413 6.68412 17.4401 4.4959 15.9988 4.69719ZM19.6302 4.69615C17.9721 5.00327 18.846 7.482 20.3375 6.73807C21.4764 6.16949 20.8087 4.47827 19.6302 4.69615ZM23.049 4.69615C21.5245 4.97837 22.0352 7.16243 23.533 6.83353C24.7713 6.56272 24.4305 4.43988 23.049 4.69615Z" fill="white"/>
</g>
<defs>
<clipPath id="clip0_2814_1402">
<rect width="28" height="25" fill="white"/>
</clipPath>
</defs>
</svg>
