<svg xmlns="http://www.w3.org/2000/svg" version="1.1" xmlns:xlink="http://www.w3.org/1999/xlink" width="303.97" height="323.45"><svg xmlns="http://www.w3.org/2000/svg" version="1.1" xmlns:xlink="http://www.w3.org/1999/xlink" width="303.97" height="323.45"><svg id="SvgjsSvg1067" xmlns="http://www.w3.org/2000/svg" version="1.1" viewBox="0 0 303.97 323.45">
  <!-- Generator: Adobe Illustrator 29.6.0, SVG Export Plug-In . SVG Version: 2.1.1 Build 207)  -->
  <defs>
    <style>
      .st0 {
        fill: #96a500;
      }
    </style>
  </defs>
  <path class="st0" d="M165.49.05c9.5.27,19.77,1.54,29.18,3.46,42.62,8.7,81.09,35.31,103.93,72.15l-24.38,24.82c18.63,34.26,19.93,76.36,3.58,111.79l26.17,26.61c-22.22,41.57-63.26,71.97-109.6,81.32C106.72,337.89,21.05,281.58,3.32,194.32-16.87,94.95,57.55,2.96,158.2.05c2.4-.07,4.89-.07,7.29,0h0ZM161.48,74.37c-2.48-7.75-4.51-15.5-5.77-23.56-.36-2.28-.31-5.1-.8-7.22-.08-.36-.08-.71-.52-.83-20.67,2.01-40.28,9.22-57.2,21.11-19.62,13.78-37.39,36.5-43.1,60.05-2.33,9.59-3.66,19.69-4.55,29.52l3.46-13.48c4.41-14.37,10.65-28.62,22.8-38.08l1.46-.03,16.22,5.92c16.52-20.28,41.43-33.63,68-33.4h0ZM269.3,103.28c-11.67-20.73-24.05-31.51-44.4-43.63-1.13-.68-2.69-1.94-3.98-1.85,13.73,10.64,28.11,23.26,33.73,40.27,1.48,4.49,2.33,9.25,3.77,13.76l-.11.79-15.1,14.12c8.74,20.83,9.43,43.87,1.78,65.15-.97,2.71-2.33,5.26-3.27,7.98.18.46.54.43.91.56,5.13,1.73,11.72,2.61,17.22,4.29,4.38,1.34,8.66,3.01,12.99,4.5,15.5-32.8,14.28-74.27-3.55-105.94h0ZM162.88,77.35c-25.33-.47-50.37,11.71-65.95,31.46,4.73,2.07,10,4.44,12.91,8.95,5.27,8.19,5.41,30.18,4.17,39.81-2.36,18.47-10.58,35.04-22.79,48.88,13.73,22.59,39.04,37.98,65.52,39.34-.91-4.7-1.39-10.89.19-15.47,2.43-7.07,17.36-17.17,24-20.84,15.48-8.55,32.7-12.18,50.38-10.86,1.51.11,6.09,1.17,7.12.55,10.87-21.41,11.87-47.97,2.19-69.97-2.76,1.62-5.45,3.44-8.67,4.11-12.64,2.63-32.98-10.29-42.4-18.3-11.85-10.08-19.82-23.88-26.67-37.66h0ZM157.45,248.92c-28.04-1.2-53.44-16.99-68.73-40.1-5.8,6.98-13.03,12.7-19.78,18.76,18.6,27.1,49.4,45.52,82.19,49.33,10.09,1.17,21.23.29,31.14-1.95,14.38-3.26,27.58-11.53,40.11-18.95l-15.49,6.38c-15.1,5.35-31,8.2-46.54,2.68l-2.9-16.15h0Z"></path>
</svg><style>@media (prefers-color-scheme: light) { :root { filter: contrast(1) brightness(0.9); } }
@media (prefers-color-scheme: dark) { :root { filter: none; } }
</style></svg><style>@media (prefers-color-scheme: light) { :root { filter: none; } }
@media (prefers-color-scheme: dark) { :root { filter: none; } }
</style></svg>